<svg width="5712" height="2592" viewBox="0 0 5712 2592" fill="none" xmlns="http://www.w3.org/2000/svg">
<path d="M3440 2592C2292 2592 1146 2592 0 2592C6.24199e-05 1164 5.08801e-05 1428 0.0001133 9.54007e-07C1904 8.31805e-05 3808 0.000166453 5712 0.00024968C5712 1428 5712 1164 5712 2592C4955.33 2592 4198.67 2592 3440 2592ZM2324.21 1675.93C2348.3 1683.77 2371.3 1693.81 2393.61 1706.04C2419.48 1720.2 2434.64 1742.98 2448.62 1767.27C2449.23 1768.32 2448.94 1769.88 2447.27 1772.28C2447.31 1773.7 2446.87 1776.12 2447.45 1776.39C2451.09 1778.11 2452.65 1775.97 2455.26 1775.28C2459.84 1784.03 2464.4 1792.79 2469 1801.54C2479.87 1822.24 2486.97 1844.37 2493.97 1866.56C2499.57 1884.3 2505.11 1902.08 2511.42 1919.57C2517.33 1935.94 2530.82 1946.12 2544.14 1956.03C2547.13 1958.26 2551.55 1958.93 2555.43 1959.54C2572.71 1962.28 2589.57 1956.67 2606.74 1956.55C2607.94 1956.54 2609.25 1955.68 2610.32 1954.94C2625.05 1944.75 2640.55 1941.54 2658.44 1946.23C2675.02 1950.57 2692.33 1951.98 2709.1 1955.69C2716.73 1957.37 2724.46 1960.49 2731.02 1964.7C2749.51 1976.58 2770.52 1979.7 2791.33 1983.78C2803.01 1986.07 2815.15 1986.94 2826.31 1990.72C2858.92 2001.75 2892.26 2005.53 2926.44 2003.82C2928.43 2003.72 2930.44 2003.59 2932.42 2003.76C2937.05 2004.17 2941.65 2004.76 2946.27 2005.23C2954.83 2006.11 2963.4 2007.81 2971.94 2007.64C2999.07 2007.08 3026.14 2005.26 3052.77 1999.44C3063.13 1997.17 3073.6 1995.24 3083.73 1992.17C3103.28 1986.26 3123.51 1983.67 3142.94 1976.28C3166.19 1967.44 3187.47 1955.84 3208.02 1942.46C3233.6 1925.78 3258.78 1908.5 3284.24 1891.63C3303.73 1878.73 3321.63 1863.98 3335.78 1845.3C3346.61 1831.02 3356.74 1816.18 3366.55 1801.17C3369.72 1796.32 3370.89 1790.16 3374.82 1783.29C3376.84 1781.05 3378.86 1778.81 3383.95 1776.18C3412.4 1765.97 3441.16 1765.69 3470.2 1773.36C3474.04 1774.37 3478 1775.71 3481.88 1775.64C3495.39 1775.42 3508.2 1778.72 3521.01 1782.32C3532.51 1785.56 3544.12 1788.47 3555.54 1791.98C3582.75 1800.36 3610.56 1807.07 3635.59 1821.5C3641.87 1825.12 3649.11 1827.02 3655.78 1829.99C3667.89 1835.39 3679.94 1840.96 3691.96 1846.57C3694.95 1847.97 3697.59 1850.14 3700.62 1851.43C3730.01 1863.93 3757.76 1879.47 3784.85 1896.31C3801.85 1906.87 3820.08 1914.79 3839.47 1919.92C3876.71 1929.76 3914.58 1936.6 3952.27 1944.36C3977.77 1949.62 4003.24 1952.46 4029.31 1952.34C4048.91 1952.26 4067.65 1949.2 4085.96 1942.8C4102.91 1936.88 4119.59 1930.24 4136.59 1924.5C4177.53 1910.68 4217.66 1895.18 4253.94 1871.16C4255.05 1870.43 4256.24 1869.8 4257.46 1869.26C4278.97 1859.74 4295.51 1842.83 4315.02 1830.28C4328.34 1821.71 4339.91 1810.44 4352.67 1800.93C4366.05 1790.97 4378.35 1779.89 4389.93 1767.93C4399.19 1758.37 4408.78 1749.13 4418.16 1739.68C4423.31 1734.49 4428.96 1729.62 4433.3 1723.81C4453.17 1697.25 4472.65 1670.4 4495.01 1644.16C4510.34 1653.49 4525.78 1662.67 4540.98 1672.2C4556.2 1681.74 4565.83 1696.64 4573.41 1711.93C4579.17 1723.55 4579.79 1737.51 4578.7 1750.96C4577.25 1768.92 4578.84 1786.14 4585.97 1803.32C4597.38 1830.83 4618.69 1844.96 4646.24 1849.5C4669.74 1853.36 4693.81 1853.56 4717.57 1856.01C4739.54 1858.27 4760.72 1863.71 4779.79 1875.43C4807.44 1892.4 4829.11 1915.83 4848.48 1941.32C4865.76 1964.07 4881.39 1988.07 4898.5 2010.97C4909.19 2025.28 4916.96 2041.8 4931.17 2053.54C4947.04 2066.66 4962.37 2080.42 4978 2093.83C4980.48 2095.96 4983.02 2098.29 4985.95 2099.56C5010.26 2110.07 5033.46 2123.34 5060.55 2126.62C5076.28 2128.52 5091.96 2131.92 5107.63 2128.29C5124.47 2124.4 5141.01 2119.26 5157.65 2114.57C5175.34 2109.58 5190.83 2101.13 5202.97 2086.86C5220.84 2065.85 5234.24 2042.27 5243.19 2016.33C5251.75 1991.53 5252.74 1965.46 5250.97 1939.68C5249.84 1923.26 5244.71 1907.12 5241.44 1890.84C5234.79 1857.8 5218.6 1830.59 5194.15 1807.24C5178.86 1792.64 5162.89 1781.53 5142.23 1775.66C5116.05 1768.22 5090.2 1767.05 5063.34 1770.18C5043.46 1772.49 5028.62 1782.31 5014.81 1795.16C5005.06 1804.23 5000.44 1815.61 4999.89 1828.9C4998.77 1855.75 5004.45 1880.44 5022.41 1901.27C5029.76 1909.81 5037.52 1918.01 5044.98 1926.47C5046.96 1928.72 5048.49 1931.36 5051.67 1935.88C5045.91 1935.57 5042.3 1936.33 5039.66 1935.07C5030.63 1930.75 5022.32 1925.34 5016.16 1917.05C4996.11 1890.09 4980.55 1860.89 4971.51 1828.41C4961.62 1792.86 4943.29 1762.49 4915.25 1738.43C4907.75 1731.99 4899.15 1726.56 4890.37 1721.97C4878.01 1715.51 4865.02 1710.23 4852.28 1704.51C4829.11 1694.12 4805.52 1685.67 4779.83 1683.4C4761.34 1681.77 4742.95 1678.51 4724.67 1675.15C4703.67 1671.29 4682.92 1666.06 4664.63 1654.41C4650.06 1645.12 4635.69 1635.46 4621.77 1625.22C4614.34 1619.76 4607.47 1613.26 4601.38 1606.33C4589.53 1592.85 4578.41 1578.74 4567.7 1562.07C4569.54 1559.36 4570.98 1556.22 4573.3 1554.01C4586.29 1541.63 4600.69 1530.48 4612.26 1516.9C4621.83 1505.67 4632.11 1495.57 4643.55 1486.57C4655.01 1477.56 4666.96 1469.16 4678.77 1460.6C4692.96 1450.31 4709.31 1444.83 4725.48 1438.48C4752.64 1427.81 4780.82 1423.51 4809.36 1424.53C4830.41 1425.29 4851.6 1429.41 4872.17 1434.37C4898 1440.6 4923.28 1449.15 4948.76 1456.82C4965.32 1461.81 4981.88 1466.83 4998.31 1472.21C5007.79 1475.3 5016.84 1479.76 5026.41 1482.51C5041.71 1486.91 5057.33 1490.19 5072.71 1494.34C5087.59 1498.35 5102.54 1500.59 5118.04 1500.16C5132.63 1499.76 5147.32 1498.94 5161.72 1503.16C5166.06 1504.43 5170.99 1503.86 5175.64 1503.89C5188.97 1503.98 5202.31 1503.83 5215.64 1504.02C5221.6 1504.11 5227.57 1504.69 5233.53 1505.24C5242.1 1506.04 5250.65 1507.11 5259.22 1507.88C5270.64 1508.92 5281.72 1504.9 5292.84 1504.72C5314.98 1504.37 5336.38 1499.95 5357.9 1495.93C5365.05 1494.59 5372.33 1492.92 5378.96 1490.05C5406.44 1478.14 5433.64 1465.6 5461.05 1453.55C5471.64 1448.89 5480.39 1442.05 5488.4 1433.85C5506.53 1415.28 5524.54 1396.68 5541.59 1377.03C5562.86 1352.5 5579.6 1325.84 5590.27 1295.26C5593.34 1286.47 5596.33 1277.64 5599.59 1268.91C5604.47 1255.87 5609.96 1243.04 5614.33 1229.83C5615.91 1225.02 5615.47 1219.36 5615.1 1214.14C5614.84 1210.39 5611.56 1208.32 5607.96 1208.8C5605.65 1209.1 5602.07 1210.66 5601.62 1212.35C5597.21 1228.66 5587.79 1242.48 5580.4 1257.33C5574.97 1268.22 5568.32 1277.87 5559.68 1286.36C5546.37 1299.43 5533.3 1312.76 5520.06 1325.92C5517.24 1328.72 5514.48 1331.89 5511.07 1333.77C5496.06 1342.02 5481.22 1350.75 5464.02 1353.96C5450.98 1356.39 5438.21 1360.23 5424.72 1360.11C5412.11 1359.99 5399.39 1359.03 5387.05 1363.15C5384.63 1363.96 5381.71 1363.89 5379.13 1363.5C5364.72 1361.36 5350.23 1359.54 5335.98 1356.58C5317.96 1352.83 5298.86 1353.86 5282 1344.71C5280.92 1344.12 5279.37 1344.17 5278.07 1344.26C5265.17 1345.17 5253.13 1340.84 5240.78 1338.32C5222.57 1334.6 5204.21 1331.56 5186.11 1327.43C5175.8 1325.08 5165.75 1321.45 5155.8 1317.82C5144.63 1313.73 5134.03 1307.77 5122.62 1304.78C5097.82 1298.27 5076.54 1284.63 5054.16 1273.19C5045.85 1268.94 5037.77 1264.46 5031.1 1257.61C5028.47 1254.9 5024.39 1253.55 5020.87 1251.79C5005.87 1244.27 4978.24 1220.64 4967.54 1207.54C4960.86 1199.36 4953.43 1191.51 4945.19 1184.94C4927.86 1171.13 4914.18 1154 4900.98 1136.67C4894.58 1128.28 4889.27 1119.03 4881.66 1111.47C4879.34 1109.15 4877.55 1106.25 4875.76 1103.47C4867.46 1090.61 4859.2 1077.74 4851.02 1064.81C4847.47 1059.2 4842.36 1053.81 4841.14 1047.68C4839.44 1039.15 4834.27 1033.75 4829.58 1027.3C4817.82 1011.14 4806.45 994.756 4791.68 981.091C4790.25 979.768 4789.18 977.952 4788.26 976.199C4780.12 960.733 4767.99 948.301 4757.04 934.97C4744.39 919.563 4730.95 904.717 4719.39 888.532C4712.07 878.277 4705.33 867.983 4696.08 859.095C4677.95 841.692 4662.66 821.136 4638.97 810.237C4637.25 809.444 4636 807.608 4634.53 806.264C4625.19 797.74 4616.11 788.919 4606.46 780.768C4592.76 769.199 4578.6 758.171 4564.71 746.822C4556.5 740.112 4547.92 733.744 4540.44 726.283C4532.18 718.036 4526.53 706.755 4512.83 705.735C4511.22 705.615 4509.66 703.418 4508.26 702.005C4497.84 691.498 4485.22 684.433 4472.32 677.397C4462.08 671.808 4451.83 668.613 4440.25 667.872C4429.71 667.198 4418.57 666.752 4408.94 663.016C4394.56 657.439 4379.5 654.98 4364.88 650.677C4349.02 646.004 4332.73 641.943 4315.78 644.922C4291.58 649.177 4267.3 653.075 4242.62 651.821C4223.49 650.849 4206.07 658.145 4188.34 663.037C4171.19 667.77 4155.34 677.204 4138.21 682.056C4114.4 688.799 4095.6 706.344 4071.24 711.353C4070.64 711.476 4070.17 712.144 4069.59 712.456C4056.83 719.299 4045.16 728.202 4029.87 729.852C4024.28 730.455 4018.33 733.939 4013.88 737.686C4004.56 745.519 3993.93 750.86 3983.38 756.513C3975.22 760.882 3966.95 765.158 3959.27 770.288C3942.46 781.516 3924.3 789.204 3904.67 793.903C3897.02 795.733 3889.46 797.642 3882.3 801.923C3874.47 806.599 3865.19 809.084 3856.29 811.636C3847.4 814.183 3838.21 815.727 3829.12 817.52C3823.94 818.542 3818.7 819.677 3813.46 819.89C3803.47 820.296 3793.43 820.576 3783.48 819.938C3776.97 819.521 3770.39 817.966 3764.17 815.93C3743.46 809.152 3727.14 795.393 3711.15 781.312C3696.05 768.02 3683.84 752.219 3673.23 735.254C3667.4 725.934 3659.67 718.929 3650.38 713.529C3644.05 709.851 3637.41 706.715 3630.84 703.457C3621.84 698.983 3613.23 698.724 3604.5 704.846C3599.11 708.623 3592.85 711.15 3585.99 714.758C3585.29 716.231 3584.62 718.981 3582.98 720.912C3570.09 736.104 3566.49 755.5 3559.19 773.199C3557.45 777.42 3556.18 782.236 3556.27 786.745C3556.78 811.4 3554.84 835.866 3552.16 860.343C3550.14 878.855 3548.05 897.305 3538.45 913.707C3528.03 931.502 3517.95 949.612 3506 966.354C3496.7 979.387 3483.76 990.165 3468.29 994.69C3451.86 999.495 3434.46 1001.04 3417.45 1003.71C3414.25 1004.21 3410.74 1003.74 3407.53 1003.02C3393.28 999.841 3379.01 996.676 3364.89 992.96C3357.22 990.944 3349.85 987.837 3342.34 985.217C3328.38 980.343 3316.61 971.542 3303.92 964.318C3287.37 954.89 3273.48 943.131 3263.43 926.905C3256.81 916.227 3250.53 905.289 3243.2 895.118C3236.93 886.416 3231.01 877.806 3228.31 867.242C3227.5 864.099 3225.43 861.302 3224.14 858.26C3217.67 842.965 3210.11 828.008 3205.07 812.249C3195.16 781.223 3185.47 750.026 3178.01 718.353C3173.43 698.91 3161.42 685.443 3149.26 671.479C3142.37 663.558 3133.21 660.917 3122.65 659.855C3102.59 657.837 3084.37 664.149 3066.64 671.217C3050.71 677.57 3035.68 681.487 3018.5 676.433C3007.81 673.29 2996.28 672.778 2985.06 671.78C2966.46 670.126 2951.23 660.395 2935.78 651.501C2922.37 643.782 2908.04 639.126 2893.14 635.957C2871.08 631.261 2848.13 629.768 2827.41 620.208C2806.1 610.376 2783.12 611.872 2760.92 609.364C2742.69 607.304 2724.19 607.347 2705.78 604.993C2689.42 602.9 2672.14 602.448 2656.02 605.41C2633.4 609.568 2609.95 609.492 2588.13 618.774C2577.27 623.392 2565.21 625.898 2553.43 627.475C2531.9 630.359 2513.16 640.938 2492.98 647.442C2471.63 654.321 2455.94 670.139 2437.39 681.381C2423.86 689.583 2411.92 700.486 2399.55 710.53C2387.25 720.518 2372.96 727.636 2361.41 738.845C2351.45 748.505 2339.4 755.976 2329.08 765.298C2322.24 771.476 2316.6 779.052 2310.8 786.299C2306.23 792.001 2301.91 797.963 2298.03 804.15C2287.43 821.034 2276.71 837.866 2266.84 855.177C2260.95 865.508 2255.78 876.408 2251.67 887.565C2239.9 919.541 2224.34 949.586 2207.32 978.985C2200.7 990.418 2194.62 1002.18 2189.12 1015.55C2187.43 1015.64 2185.74 1015.72 2181.81 1013.91C2179.9 1013.36 2178 1012.76 2176.07 1012.27C2143.83 1004.12 2111.58 996.035 2080.68 983.483C2056.05 973.48 2031.25 963.845 2006.91 953.191C1989.27 945.471 1971.84 937.059 1955.02 927.704C1923.32 910.078 1890.19 897.206 1854.16 891.531C1823.99 886.778 1794.07 880.404 1763.96 875.193C1748.92 872.591 1733.74 870.743 1718.57 869.062C1713.36 868.484 1707.96 869.29 1702.67 869.747C1696.05 870.318 1689.44 870.962 1682.88 871.971C1673.7 873.385 1664.11 873.878 1655.52 877.007C1614.89 891.793 1572.57 901.412 1532.75 918.861C1505.82 930.664 1479.64 943.714 1455.4 959.996C1419.56 984.071 1383.98 1008.36 1351.22 1037.04C1322.85 1061.87 1300.18 1090.99 1276.48 1119.57C1275.69 1120.52 1275.58 1122.05 1273.2 1124.62C1270.21 1127.12 1267.21 1129.62 1260.77 1132.07C1245.93 1134.25 1233.48 1129.02 1222.07 1119.99C1213.76 1113.4 1205.35 1106.89 1196.56 1100.97C1188.89 1095.81 1180.48 1091.77 1172.67 1086.8C1158.06 1077.48 1143.46 1068.26 1126.78 1062.88C1123.01 1061.67 1119.51 1059.58 1115.92 1057.83C1085.87 1043.26 1058.03 1025.14 1031.3 1005.26C1025.46 1000.91 1018.92 996.932 1014.53 991.348C1007.16 981.974 1001.09 971.545 994.776 961.373C989.752 953.281 987.48 944.437 987.843 934.741C988.267 923.431 987.454 912.068 988.028 900.772C988.957 882.521 985.982 865.196 979.626 848.016C974.19 833.323 966.349 821.731 954.314 810.988C937.162 795.677 917.512 790.138 896.178 788.345C879.011 786.903 861.806 787.482 844.571 784.573C831.414 782.353 818.359 780.128 805.829 775.811C792.701 771.289 780.289 765.507 768.809 756.995C753.663 745.766 741.47 731.834 728.532 718.529C717.85 707.546 708.969 695.219 700.849 682.15C683.687 654.532 665.727 627.41 648.07 600.099C642.7 591.793 635.314 584.728 633.013 574.532C632.455 572.059 630.758 569.65 629.06 567.659C622.179 559.595 615.461 551.342 608.006 543.83C594.012 529.728 579.573 516.065 565.252 502.289C562.907 500.033 560.466 497.68 557.649 496.148C546.009 489.819 534.355 483.489 522.437 477.713C498.256 465.996 473.006 459.15 445.734 459.713C433.337 459.969 422.422 464.577 410.852 467.365C394.026 471.419 377.302 475.455 361.425 482.754C349.125 488.408 339.027 496.12 330.234 506.457C311.406 528.591 298.93 554.135 288.434 580.819C285.05 589.423 282.69 598.43 279.873 607.256C275.752 620.163 275.864 633.478 276.054 646.806C276.282 662.783 274.738 679.025 277.139 694.665C279.635 710.935 279.581 727.942 286.85 743.378C287.926 745.662 287.749 748.603 287.88 751.253C288.422 762.128 292.693 771.865 296.723 781.743C309.316 812.613 329.139 838.181 354.037 859.953C358.969 864.265 364.697 867.89 370.55 870.864C377.04 874.162 384.019 876.563 390.916 878.982C409.912 885.646 429.338 889.852 449.635 887.791C461.503 886.586 473.357 885.183 485.173 883.554C488.392 883.11 492.011 882.246 494.49 880.335C506.024 871.444 517.49 862.419 528.379 852.764C531.646 849.868 533.117 844.854 535.158 840.687C541.281 828.192 540.213 814.725 540.105 801.44C539.886 774.871 534.27 750.067 515.974 729.528C514.656 728.048 513.426 726.4 512.544 724.636C505.114 709.793 493.147 699.588 479.083 691.428C476.613 689.994 474.445 688.037 469.551 684.399C497.405 684.038 514.857 696.088 527.412 715.466C548.913 748.652 564.224 784.602 573.868 823.066C577.242 836.526 582.621 849.514 587.514 862.556C595.413 883.606 610.211 899.836 625.545 915.606C634.357 924.669 642.835 934.213 654.212 940.232C674.775 951.11 695.567 961.558 716.045 972.591C734.048 982.292 754.027 984.135 773.522 987.939C781.971 989.589 790.546 990.583 799.045 991.996C806.869 993.296 814.691 994.633 822.465 996.199C827.014 997.114 831.404 999.084 835.975 999.587C855.508 1001.73 872.616 1010.24 890.05 1018.51C903.001 1024.65 912.138 1035.54 924.183 1042.62C936.963 1050.12 947.899 1060.13 957.033 1071.51C975.247 1094.23 994.283 1116.41 1008.32 1142.2C1019.16 1162.12 1033.15 1179.76 1046.93 1197.73C1058.75 1213.13 1074.75 1224.18 1086.15 1239.75C1088.79 1243.36 1093.54 1245.35 1096.87 1248.55C1103.53 1254.96 1109.88 1261.69 1114.4 1270.15C1074.37 1299.12 1029.16 1312.79 980.268 1315.9C966.811 1316.75 953.797 1313.83 940.572 1312.72C920.519 1311.05 901.164 1306.51 881.902 1301.2C831.889 1287.41 782.217 1272.39 731.826 1259.95C710.373 1254.66 688.896 1250.86 666.683 1251.93C659.388 1252.28 652.025 1251.66 644.714 1251.18C632.117 1250.36 619.55 1248.88 606.944 1248.43C587.005 1247.72 567.014 1249.22 547.177 1245.19C540.826 1243.9 533.905 1245.14 527.269 1245.58C518.655 1246.16 510.068 1247.12 501.465 1247.86C476.922 1249.96 452.448 1252.68 428.982 1260.62C412.594 1266.17 396.37 1272.24 380.269 1278.58C368.502 1283.21 356.847 1288.24 345.545 1293.89C339.083 1297.13 333.232 1301.72 327.473 1306.18C323.277 1309.42 320.004 1313.87 315.766 1317.05C293.145 1333.99 274.965 1355.29 257.186 1376.88C247.481 1388.67 238.42 1401.04 232.833 1415.63C227.363 1429.92 220.918 1443.83 215.256 1458.04C211.812 1466.69 208.994 1475.59 206.006 1484.42C205.375 1486.28 204.897 1488.31 204.924 1490.26C204.988 1494.76 207.431 1497.77 211.774 1498.84C215.568 1499.78 218.033 1497.9 219.564 1494.42C222.514 1487.72 225.183 1480.86 228.657 1474.43C240.448 1452.63 254.143 1432.36 274.796 1417.63C280.733 1413.4 286.489 1408.56 291.201 1403.04C301.183 1391.34 315.542 1386.5 328.563 1381.25C344.923 1374.65 362.651 1369.69 381.134 1371.3C385.736 1371.7 390.613 1371.63 395.07 1370.55C419.124 1364.76 442.755 1369.83 466.338 1373.3C495.871 1377.64 525.233 1383.12 554.704 1387.9C589.462 1393.54 624.428 1398.2 657.356 1411.72C662.891 1413.99 668.357 1416.78 674.137 1418.05C711.254 1426.19 742.225 1447.55 774.836 1465.14C791.16 1473.95 805.342 1486.43 818.347 1499.93C822.956 1504.71 827.247 1510.1 832.669 1513.74C847.682 1523.83 860.798 1535.84 872.394 1549.62C879.669 1558.28 886.693 1567.17 894.405 1575.41C910.848 1592.99 924.066 1613.1 937.109 1633C945.875 1646.37 954.721 1659.36 965.427 1671.12C973.053 1679.49 981.282 1687.32 988.837 1695.76C1007.04 1716.07 1024.99 1736.62 1043.08 1757.04C1046.17 1760.53 1049.95 1763.51 1052.56 1767.3C1064.79 1785.07 1080.98 1798.72 1097.14 1812.68C1108.3 1822.32 1120.98 1829.49 1132.59 1838.28C1146.92 1849.11 1160.63 1860.74 1174.95 1871.58C1183.95 1878.4 1193.21 1885.06 1203.03 1890.59C1212.47 1895.91 1220.58 1902.56 1228.24 1910.02C1231.53 1913.23 1234.74 1917.53 1238.78 1918.76C1248.7 1921.78 1254.36 1931.11 1263.91 1934.3C1274.67 1946.64 1290.27 1948.22 1304.66 1951.88C1316.81 1954.97 1329.4 1956.92 1341.91 1957.9C1355.23 1958.94 1367.64 1963.53 1379.9 1967.46C1407.53 1976.33 1435.13 1970.96 1462.75 1970.58C1470.64 1970.47 1478.65 1967.58 1486.38 1968.31C1509.55 1970.49 1531.84 1964.99 1552.96 1958.04C1581.18 1948.76 1611.22 1943.55 1636.59 1926.42C1638.67 1925.01 1641.59 1924.26 1644.13 1924.23C1651.85 1924.13 1658.09 1920.2 1664.71 1917.13C1674.36 1912.66 1683.99 1908.13 1693.8 1904.03C1701.73 1900.72 1710.28 1898.76 1717.9 1894.9C1734.96 1886.24 1751.16 1876.04 1768.72 1868.18C1787.5 1859.78 1805.19 1848.92 1826.41 1847.04C1830.87 1846.64 1835.1 1843.85 1839.48 1842.28C1848.85 1838.95 1858.12 1835.26 1867.67 1832.55C1875.93 1830.2 1884.63 1829.41 1892.94 1827.19C1909.35 1822.82 1926.46 1821.56 1942.34 1825.69C1979.35 1835.31 2011.11 1854.2 2032.7 1887.05C2044.93 1905.67 2062.02 1917.6 2082.62 1924.86C2086.86 1926.35 2092.32 1927.85 2096.12 1926.42C2105.37 1922.95 2115.92 1919.65 2122.46 1912.9C2139 1895.84 2149.65 1874.56 2151.25 1850.72C2152.54 1831.5 2153.46 1812.27 2155.19 1793.04C2156.96 1773.35 2161.94 1755.35 2173.69 1739.09C2183.41 1725.64 2191.93 1711.32 2204.02 1697.62C2208.49 1698.72 2213.24 1699.22 2217.38 1701.05C2230.33 1706.77 2243.11 1705.38 2255.85 1700.91C2262.64 1698.53 2269.16 1695.43 2275.87 1692.83C2291.14 1686.93 2304.53 1676.43 2324.21 1675.93ZM1459.73 2068.36C1460.97 2067.34 1462.21 2066.32 1463.46 2065.3C1462.55 2064.58 1461.65 2063.86 1460.74 2063.14C1459.94 2064.55 1459.14 2065.95 1459.73 2068.36Z" fill="#E5CCE1"/>
<path d="M2191.63 1015.23C2194.62 1002.18 2200.7 990.418 2207.32 978.985C2224.34 949.585 2239.9 919.541 2251.67 887.565C2255.78 876.408 2260.95 865.508 2266.84 855.177C2276.71 837.866 2287.43 821.034 2298.03 804.15C2301.91 797.963 2306.23 792.001 2310.8 786.299C2316.6 779.052 2322.24 771.476 2329.08 765.298C2339.4 755.976 2351.45 748.505 2361.41 738.845C2372.96 727.636 2387.25 720.518 2399.55 710.53C2411.92 700.486 2423.86 689.583 2437.39 681.381C2455.94 670.139 2471.63 654.321 2492.98 647.442C2513.16 640.938 2531.9 630.359 2553.43 627.475C2565.21 625.898 2577.27 623.392 2588.13 618.774C2609.95 609.492 2633.4 609.568 2656.02 605.41C2672.14 602.448 2689.42 602.9 2705.78 604.993C2724.19 607.347 2742.69 607.304 2760.92 609.364C2783.12 611.872 2806.1 610.376 2827.41 620.208C2848.13 629.768 2871.08 631.261 2893.14 635.957C2908.04 639.126 2922.37 643.782 2935.78 651.501C2951.23 660.395 2966.46 670.126 2985.06 671.78C2996.28 672.778 3007.81 673.29 3018.5 676.433C3035.68 681.487 3050.71 677.57 3066.64 671.217C3084.37 664.149 3102.59 657.837 3122.65 659.855C3133.21 660.917 3142.37 663.558 3149.26 671.479C3161.42 685.443 3173.43 698.91 3178.01 718.353C3185.47 750.026 3195.16 781.223 3205.07 812.249C3210.11 828.008 3217.66 842.965 3224.14 858.26C3225.43 861.302 3227.5 864.099 3228.31 867.242C3231 877.806 3236.93 886.416 3243.2 895.118C3250.53 905.289 3256.81 916.226 3263.43 926.905C3273.48 943.131 3287.37 954.889 3303.92 964.317C3316.6 971.541 3328.38 980.343 3342.34 985.216C3349.85 987.836 3357.22 990.943 3364.89 992.96C3379.01 996.676 3393.28 999.841 3407.53 1003.02C3410.74 1003.74 3414.25 1004.21 3417.44 1003.71C3434.46 1001.04 3451.86 999.494 3468.29 994.69C3483.76 990.165 3496.7 979.386 3506 966.354C3517.95 949.611 3528.03 931.502 3538.45 913.706C3548.05 897.305 3550.14 878.855 3552.16 860.343C3554.84 835.866 3556.78 811.4 3556.27 786.745C3556.18 782.236 3557.45 777.42 3559.19 773.199C3566.49 755.5 3570.09 736.104 3582.98 720.912C3584.62 718.981 3585.29 716.231 3585.99 714.758C3592.85 711.15 3599.11 708.623 3604.5 704.846C3613.23 698.724 3621.83 698.983 3630.84 703.457C3637.41 706.715 3644.05 709.851 3650.38 713.529C3659.67 718.929 3667.4 725.934 3673.23 735.254C3683.84 752.219 3696.05 768.02 3711.15 781.312C3727.14 795.393 3743.46 809.152 3764.17 815.93C3770.39 817.966 3776.97 819.521 3783.48 819.938C3793.43 820.576 3803.47 820.296 3813.46 819.89C3818.7 819.677 3823.94 818.542 3829.12 817.52C3838.21 815.727 3847.4 814.183 3856.29 811.636C3865.19 809.084 3874.47 806.599 3882.3 801.923C3889.46 797.642 3897.02 795.733 3904.67 793.903C3924.3 789.204 3942.46 781.516 3959.27 770.288C3966.94 765.158 3975.22 760.882 3983.37 756.513C3993.93 750.86 4004.56 745.519 4013.88 737.686C4018.33 733.939 4024.27 730.455 4029.87 729.852C4045.16 728.202 4056.83 719.299 4069.59 712.456C4070.17 712.144 4070.64 711.476 4071.24 711.353C4095.6 706.344 4114.4 688.799 4138.21 682.056C4155.34 677.204 4171.19 667.77 4188.34 663.037C4206.07 658.145 4223.49 650.849 4242.62 651.821C4267.3 653.075 4291.58 649.177 4315.78 644.922C4332.73 641.943 4349.02 646.004 4364.88 650.677C4379.5 654.98 4394.56 657.439 4408.94 663.016C4418.57 666.752 4429.71 667.198 4440.25 667.872C4451.83 668.613 4462.08 671.808 4472.32 677.397C4485.22 684.433 4497.84 691.498 4508.26 702.005C4509.66 703.418 4511.22 705.615 4512.83 705.735C4526.53 706.755 4532.18 718.036 4540.44 726.283C4547.92 733.744 4556.5 740.112 4564.71 746.822C4578.6 758.171 4592.76 769.199 4606.46 780.768C4616.11 788.919 4625.19 797.74 4634.53 806.264C4636 807.608 4637.25 809.444 4638.97 810.237C4662.66 821.136 4677.95 841.692 4696.07 859.095C4705.33 867.983 4712.06 878.277 4719.39 888.532C4730.95 904.717 4744.39 919.563 4757.04 934.97C4767.99 948.301 4780.12 960.733 4788.26 976.198C4789.18 977.951 4790.25 979.767 4791.68 981.09C4806.45 994.755 4817.82 1011.14 4829.58 1027.3C4834.27 1033.75 4839.44 1039.15 4841.14 1047.68C4842.36 1053.81 4847.47 1059.2 4851.02 1064.81C4859.2 1077.74 4867.46 1090.61 4875.76 1103.47C4877.55 1106.25 4879.34 1109.15 4881.66 1111.47C4889.27 1119.03 4894.58 1128.27 4900.98 1136.67C4914.18 1154 4927.86 1171.13 4945.19 1184.94C4953.43 1191.51 4960.86 1199.36 4967.54 1207.54C4978.24 1220.64 5005.87 1244.27 5020.87 1251.79C5024.39 1253.55 5028.47 1254.9 5031.1 1257.6C5037.77 1264.45 5045.85 1268.94 5054.16 1273.19C5076.54 1284.63 5097.82 1298.27 5122.62 1304.78C5134.03 1307.77 5144.63 1313.73 5155.8 1317.82C5165.75 1321.45 5175.8 1325.08 5186.1 1327.43C5204.21 1331.56 5222.57 1334.6 5240.78 1338.32C5253.13 1340.84 5265.17 1345.17 5278.07 1344.26C5279.37 1344.17 5280.92 1344.12 5282 1344.71C5298.85 1353.86 5317.96 1352.82 5335.98 1356.58C5350.23 1359.54 5364.72 1361.36 5379.13 1363.5C5381.71 1363.89 5384.63 1363.96 5387.05 1363.15C5399.39 1359.03 5412.11 1359.99 5424.72 1360.11C5438.21 1360.23 5450.98 1356.39 5464.02 1353.96C5481.22 1350.75 5496.06 1342.02 5511.07 1333.77C5514.48 1331.89 5517.24 1328.72 5520.06 1325.92C5533.3 1312.76 5546.37 1299.43 5559.68 1286.36C5568.32 1277.87 5574.97 1268.22 5580.4 1257.33C5587.79 1242.48 5597.21 1228.66 5601.62 1212.35C5602.07 1210.66 5605.65 1209.1 5607.96 1208.8C5611.56 1208.32 5614.84 1210.38 5615.1 1214.14C5615.47 1219.35 5615.91 1225.02 5614.33 1229.83C5609.96 1243.04 5604.47 1255.87 5599.59 1268.91C5596.33 1277.64 5593.34 1286.46 5590.27 1295.26C5579.6 1325.84 5562.86 1352.5 5541.59 1377.03C5524.54 1396.68 5506.53 1415.28 5488.4 1433.85C5480.39 1442.05 5471.64 1448.89 5461.05 1453.55C5433.64 1465.6 5406.44 1478.14 5378.96 1490.05C5372.33 1492.92 5365.05 1494.59 5357.9 1495.93C5336.38 1499.95 5314.98 1504.37 5292.84 1504.72C5281.72 1504.9 5270.64 1508.92 5259.22 1507.88C5250.65 1507.11 5242.1 1506.04 5233.53 1505.24C5227.57 1504.69 5221.6 1504.11 5215.63 1504.02C5202.31 1503.83 5188.97 1503.98 5175.64 1503.89C5170.98 1503.86 5166.06 1504.43 5161.72 1503.16C5147.32 1498.93 5132.63 1499.76 5118.04 1500.16C5102.54 1500.59 5087.59 1498.35 5072.71 1494.34C5057.33 1490.19 5041.71 1486.91 5026.41 1482.51C5016.84 1479.76 5007.79 1475.3 4998.31 1472.2C4981.87 1466.83 4965.32 1461.81 4948.76 1456.82C4923.28 1449.15 4898 1440.6 4872.17 1434.37C4851.6 1429.41 4830.41 1425.29 4809.36 1424.53C4780.82 1423.51 4752.64 1427.81 4725.48 1438.48C4709.31 1444.83 4692.96 1450.31 4678.77 1460.6C4666.96 1469.16 4655.01 1477.56 4643.55 1486.57C4632.11 1495.57 4621.83 1505.67 4612.26 1516.9C4600.69 1530.48 4586.29 1541.63 4573.29 1554.01C4570.98 1556.22 4569.54 1559.36 4566.37 1563.19C4563.75 1563.9 4562.46 1563.48 4560.97 1561.65C4559.43 1557.22 4558.37 1554.04 4556.71 1551.21C4537.14 1517.98 4508.66 1492.79 4479.94 1468.13C4460.65 1451.57 4437.58 1440.7 4414.01 1431.37C4404.15 1427.47 4393.39 1425.81 4383.64 1421.71C4359.79 1411.68 4334.41 1409.57 4309.36 1408.88C4279.53 1408.06 4249.59 1410.95 4219.71 1412.36C4217.1 1412.48 4214.5 1413.41 4211.94 1414.1C4177.94 1423.23 4143.96 1432.39 4109.98 1441.56C4108.7 1441.9 4107.46 1442.43 4106.24 1442.95C4068.27 1459.28 4028.49 1464.8 3987.4 1463.93C3966.65 1463.49 3946.32 1460.63 3926.31 1455.81C3899.84 1449.44 3873.67 1441.85 3847.28 1435.16C3812.41 1426.32 3781.94 1408.44 3753.82 1387.14C3730.56 1369.52 3708.99 1349.64 3686.17 1331.31C3647.81 1300.51 3610.62 1268.28 3568.42 1242.54C3532.05 1220.35 3496.14 1197.38 3456.18 1181.84C3441.93 1176.29 3427.8 1170.42 3413.59 1164.76C3387.64 1154.42 3361.71 1144.05 3335.72 1133.83C3325.82 1129.94 3315.69 1126.63 3305.79 1122.73C3285.35 1114.68 3264.62 1107.48 3242.84 1104.22C3222.48 1101.18 3201.99 1099.05 3181.59 1096.32C3173.7 1095.26 3165.94 1093.08 3158.03 1092.37C3137.53 1090.52 3116.97 1089.23 3096.44 1087.66C3093.13 1087.4 3089.82 1087 3086.54 1086.47C3065.57 1083.1 3044.67 1079.27 3023.64 1076.38C2998.6 1072.93 2973.94 1067.75 2949.29 1062.33C2917.97 1055.45 2888.92 1042 2858.85 1031.49C2835.64 1023.38 2812.53 1014.89 2787.21 1015.79C2758.16 1016.82 2735.68 1034.65 2728.26 1062.99C2724.73 1076.48 2721.82 1090.4 2716.12 1102.99C2704.86 1127.88 2685.11 1142.22 2657.24 1144.2C2651.94 1144.58 2646.6 1144.8 2641.37 1145.68C2625.47 1148.34 2609.77 1147.68 2593.74 1145.72C2577.16 1143.69 2561.13 1139.64 2544.84 1136.53C2530.93 1133.86 2517.84 1129.36 2505.13 1123.62C2492.81 1118.05 2482.52 1109.87 2475.58 1097.78C2468.92 1086.18 2462.82 1074.4 2460.06 1061.19C2456.25 1042.99 2451.98 1024.85 2448.92 1006.52C2445.62 986.847 2435.71 974.261 2416.1 968.407C2406.29 965.48 2397.94 965.565 2389.67 971.116C2378.63 978.528 2366.99 985.283 2356.89 993.837C2321.52 1023.8 2280.73 1029.41 2236.74 1022.4C2230.85 1021.47 2224.92 1020.28 2218.99 1020.17C2209.54 1020 2200.44 1018.59 2191.63 1015.23Z" fill="#D1ACBD"/>
<path d="M2190.37 1015.39C2200.44 1018.59 2209.54 1020 2218.99 1020.17C2224.92 1020.28 2230.85 1021.47 2236.74 1022.4C2280.73 1029.41 2321.52 1023.8 2356.89 993.837C2366.99 985.283 2378.63 978.528 2389.67 971.116C2397.94 965.565 2406.29 965.48 2416.1 968.407C2435.71 974.261 2445.63 986.847 2448.92 1006.52C2451.98 1024.85 2456.25 1042.99 2460.06 1061.19C2462.82 1074.4 2468.92 1086.18 2475.58 1097.78C2482.52 1109.87 2492.81 1118.05 2505.13 1123.62C2517.84 1129.36 2530.93 1133.86 2544.84 1136.53C2561.13 1139.64 2577.16 1143.69 2593.74 1145.72C2609.77 1147.68 2625.47 1148.34 2641.37 1145.68C2646.6 1144.8 2651.94 1144.58 2657.25 1144.2C2685.11 1142.22 2704.86 1127.87 2716.12 1102.99C2721.82 1090.4 2724.73 1076.48 2728.26 1062.99C2735.68 1034.65 2758.16 1016.82 2787.21 1015.79C2812.53 1014.89 2835.64 1023.38 2858.85 1031.49C2888.92 1042 2917.97 1055.45 2949.29 1062.33C2973.94 1067.75 2998.6 1072.93 3023.64 1076.38C3044.67 1079.27 3065.57 1083.1 3086.54 1086.47C3089.82 1087 3093.13 1087.4 3096.44 1087.66C3116.97 1089.22 3137.53 1090.52 3158.03 1092.37C3165.94 1093.08 3173.7 1095.26 3181.59 1096.32C3202 1099.05 3222.48 1101.18 3242.84 1104.22C3264.62 1107.48 3285.35 1114.68 3305.79 1122.73C3315.69 1126.63 3325.82 1129.94 3335.72 1133.83C3361.71 1144.05 3387.64 1154.42 3413.59 1164.76C3427.8 1170.42 3441.93 1176.29 3456.18 1181.84C3496.14 1197.38 3532.05 1220.35 3568.42 1242.54C3610.62 1268.28 3647.81 1300.51 3686.17 1331.31C3708.99 1349.64 3730.56 1369.52 3753.82 1387.14C3781.94 1408.44 3812.41 1426.32 3847.28 1435.16C3873.68 1441.85 3899.84 1449.44 3926.31 1455.81C3946.32 1460.63 3966.65 1463.49 3987.4 1463.93C4028.49 1464.8 4068.27 1459.28 4106.24 1442.95C4107.46 1442.43 4108.7 1441.9 4109.98 1441.56C4143.96 1432.39 4177.94 1423.23 4211.94 1414.1C4214.5 1413.41 4217.1 1412.48 4219.71 1412.36C4249.59 1410.95 4279.53 1408.06 4309.36 1408.88C4334.41 1409.57 4359.79 1411.68 4383.64 1421.71C4393.39 1425.81 4404.15 1427.47 4414.01 1431.37C4437.58 1440.7 4460.65 1451.57 4479.94 1468.13C4508.66 1492.79 4537.14 1517.98 4556.71 1551.21C4558.37 1554.04 4559.43 1557.22 4560.13 1562.86C4556.83 1568.45 4554.34 1571.56 4551.52 1574.34C4537.85 1587.83 4524.75 1601.61 4514.24 1617.99C4508.68 1626.64 4499.51 1632.97 4490.54 1640.08C4473.28 1632.86 4457.56 1625.6 4441.57 1619C4416.32 1608.57 4392.82 1595.06 4369.75 1580.5C4358.63 1573.47 4346.22 1568.44 4334.22 1562.88C4327.2 1559.63 4320.12 1560.07 4313.12 1563.91C4301.36 1570.36 4288.43 1573.41 4275.56 1576.91C4263.47 1580.19 4250.77 1582.88 4240.45 1590.7C4213.02 1611.47 4180.3 1621.65 4149.71 1635.98C4122.77 1648.6 4072.17 1654.13 4044.8 1656.06C4038.18 1656.52 4031.56 1657.18 4024.93 1657.46C4009.75 1658.09 3994.43 1660 3979.39 1658.69C3962.96 1657.26 3946.64 1653.39 3930.54 1649.48C3915.73 1645.88 3901.41 1640.26 3886.63 1636.5C3856.66 1628.87 3829.82 1613.9 3802.79 1599.91C3785.61 1591.03 3768.04 1583.29 3750.07 1576.9C3726.96 1568.67 3702.92 1563 3679.19 1556.56C3659.01 1551.09 3638.61 1550.03 3617.99 1554.53C3612.84 1555.65 3607.41 1555.43 3602.13 1555.95C3572.8 1558.84 3544.1 1563.73 3519.37 1581.57C3516.15 1583.9 3512.48 1585.6 3509.09 1587.7C3488.4 1600.52 3472.16 1617.99 3459.13 1638.17C3447.28 1656.54 3435.53 1675.01 3424.05 1693.64C3407.64 1720.32 3391.37 1746.88 3380.88 1776.56C3378.86 1778.81 3376.84 1781.05 3372.4 1783.92C3361.7 1785.89 3355.76 1791.02 3349.57 1796.26C3334.37 1809.12 3318.99 1821.79 3303.08 1833.75C3298.62 1837.11 3291.35 1840.39 3286.67 1839.08C3276.65 1836.26 3265.47 1832.41 3258.46 1825.33C3248.84 1815.61 3242.08 1802.74 3240.26 1788.35C3238.69 1775.87 3237.78 1763.28 3235.84 1750.86C3232.65 1730.41 3227.02 1710.59 3217.89 1691.94C3206.94 1669.58 3190.68 1652.47 3166.64 1644.69C3148.33 1638.76 3129.66 1633.56 3110.8 1629.89C3095.26 1626.88 3079.64 1622.86 3063.2 1622.41C3056.56 1606.61 3050.97 1591.83 3043.57 1578.04C3039.96 1571.31 3033.08 1566.27 3027.44 1560.71C3017.43 1550.86 3004.63 1551.45 2992.02 1551.89C2990.27 1551.95 2988.29 1553.27 2986.88 1554.53C2975.86 1564.41 2974.36 1578.07 2981.89 1590.39C2989.4 1602.66 3017.6 1605.82 3023.04 1588.25C3024.08 1584.87 3023.9 1580.11 3029.31 1578.55C3030.56 1579.34 3032.86 1579.96 3033.55 1581.38C3038.79 1592.02 3044.05 1602.68 3048.55 1613.65C3049.99 1617.17 3049.02 1621.56 3043.4 1624.18C3034.56 1625.36 3027.45 1627.56 3020.35 1627.54C3001.62 1627.48 2988.73 1637.14 2975.91 1649.53C2960.17 1664.74 2953.2 1682.78 2950.71 1704.65C2930.21 1714.65 2909.21 1718.32 2889.06 1724.67C2883.44 1726.44 2877.85 1728.52 2871.62 1726.32C2869.39 1725.53 2866.17 1725.95 2863.97 1727.02C2857.1 1730.34 2849.84 1729.96 2842.58 1730.32C2825.43 1731.17 2808.28 1731.48 2791.12 1731.65C2773.09 1731.83 2755.55 1730.61 2737.81 1727.78C2737.69 1727.75 2737.7 1727.74 2735.87 1727.63C2722.59 1724.03 2711.28 1719.94 2699.03 1720.18C2697.08 1720.21 2694.99 1719.88 2693.15 1719.21C2656.38 1705.83 2619.27 1693.42 2584.89 1674.11C2563.38 1662.02 2540.14 1653.82 2516.04 1648.09C2508.34 1646.26 2500.88 1643.18 2493.53 1640.15C2485.53 1636.85 2480.29 1631.59 2482.09 1621.74C2482.41 1619.97 2480.06 1617.72 2478.14 1614.22C2471.88 1621.34 2466.22 1626.86 2461.66 1633.18C2454.97 1642.43 2446.08 1644.65 2435.45 1643.79C2430.38 1643.38 2425.09 1640.02 2418.31 1644.32C2406.6 1644.92 2396.58 1644.61 2386.87 1646.21C2368.68 1649.2 2350.68 1653.29 2331.89 1655.63C2323.64 1645.94 2312.55 1644.62 2302.97 1640.4C2275.03 1628.08 2245.5 1619.3 2219.57 1602.5C2216.85 1600.74 2213.4 1600.11 2210.32 1598.89C2169.31 1582.73 2131.07 1561.33 2094.25 1537.29C2087.59 1532.94 2081.33 1527.99 2074.76 1523.48C2061.13 1514.11 2047 1505.42 2033.82 1495.45C2000.96 1470.58 1971.65 1441.56 1940.79 1414.36C1913.91 1390.66 1888.55 1365.23 1862.51 1340.58C1860.09 1338.29 1857.78 1335.8 1855.03 1333.99C1836.23 1321.65 1817.19 1309.67 1798.53 1297.13C1789.51 1291.08 1779.5 1288.09 1769.33 1285.05C1755.34 1280.87 1741.48 1276.23 1727.55 1271.87C1723.14 1270.49 1718.69 1268.52 1714.2 1268.32C1703.96 1267.87 1694.96 1263.53 1685.39 1260.87C1666.51 1255.63 1648.07 1247.12 1627.54 1250.9C1625.08 1251.35 1622.27 1250.54 1619.74 1249.85C1610.52 1247.33 1601.43 1247.68 1592.14 1249.8C1586.37 1251.11 1580.31 1251.91 1574.4 1251.79C1549.41 1251.31 1525.54 1255.73 1502.8 1266.31C1495.58 1269.67 1488.11 1272.61 1480.54 1275.07C1456.6 1282.86 1431.91 1288.77 1408.72 1298.34C1383.38 1308.81 1356.84 1309.43 1330.67 1311.47C1302.21 1313.7 1273.44 1312.1 1244.81 1311.86C1238.91 1311.81 1232.72 1311.27 1227.17 1309.42C1201.32 1300.78 1175.5 1292 1149.98 1282.44C1140.11 1278.74 1130.96 1273.01 1124.78 1263.51C1132.4 1257.12 1140.65 1252.95 1145.72 1246.34C1158.09 1230.17 1174.49 1218.91 1190.17 1206.75C1203.84 1196.15 1217.59 1185.66 1229.14 1172.72C1241.05 1159.38 1252.54 1145.67 1264.21 1132.12C1267.21 1129.62 1270.21 1127.12 1275.79 1124.13C1296.11 1118.25 1313.88 1112.94 1331.57 1107.4C1334.02 1106.64 1336.63 1105.19 1338.28 1103.29C1347.27 1092.92 1360.4 1088.66 1371.02 1080.69C1378.42 1075.14 1385.97 1068.96 1394.48 1065.9C1410.16 1060.26 1424.13 1051.21 1439.42 1045.18C1454.02 1039.43 1467.57 1029.35 1484.73 1031.57C1487.16 1031.89 1490.13 1030.82 1492.34 1029.52C1502.05 1023.8 1512.65 1023.81 1523.37 1023.95C1527.35 1024 1531.63 1024.39 1535.26 1023.13C1545.63 1019.52 1556.26 1020.17 1566.89 1020.01C1578.17 1019.84 1589.46 1020.54 1600.55 1017C1604.82 1015.64 1609.88 1015.73 1614.41 1016.37C1628.18 1018.32 1642.22 1019.61 1655.51 1023.42C1683.58 1031.48 1711.33 1040.74 1739.03 1050.04C1745.84 1052.33 1751.95 1056.73 1758.4 1060.13C1773.69 1068.2 1789.83 1075 1804.06 1084.63C1819.02 1094.76 1835.37 1101.73 1851.13 1110.04C1854.63 1111.89 1857.97 1114.29 1861.69 1115.44C1887.08 1123.34 1912.56 1130.93 1937.99 1138.72C1957.42 1144.67 1977.33 1146.17 1997.17 1142.66C2016.68 1139.21 2037.09 1140.68 2055.73 1132.33C2056.3 1132.07 2057.05 1132.14 2057.71 1132.17C2065.26 1132.49 2071.83 1129.36 2078.79 1126.95C2096.24 1120.91 2109.55 1108.75 2123.79 1097.99C2132.76 1091.22 2142.23 1084.41 2149.14 1075.75C2163.63 1057.6 2176.75 1038.31 2184.05 1015.81C2185.74 1015.72 2187.43 1015.63 2190.37 1015.39ZM2296.87 1271.03C2291.23 1271.23 2285.59 1271.44 2277.94 1271.19C2277.28 1271.38 2276.61 1271.57 2272.21 1271.56C2255.75 1272.67 2239.31 1274.41 2222.84 1274.7C2206.38 1274.99 2189.9 1273.69 2173.42 1273.33C2160.94 1273.06 2148.46 1273 2135.99 1273.17C2122.89 1273.34 2109.96 1271.08 2096.78 1271.41C2067.54 1272.15 2039.99 1259.99 2010.87 1259.06C2010.23 1259.04 2009.6 1258.71 2008.98 1258.49C1995.27 1253.76 1981.56 1249.03 1965.66 1242.71C1959.32 1239.06 1952.47 1236.07 1946.79 1231.59C1940.61 1226.72 1934.56 1221.13 1930.18 1214.67C1924.32 1206.03 1926.78 1194.87 1934.43 1187.33C1940.07 1181.76 1947.53 1183.44 1951.17 1191.09C1955.21 1199.55 1956.82 1200.1 1966.82 1197.07C1970.11 1196.07 1973.29 1195.05 1974.1 1191.23C1975.06 1186.75 1972.64 1183.5 1969.46 1180.93C1962.27 1175.13 1953.21 1174.19 1944.8 1174.3C1925.69 1174.55 1908.39 1196.4 1919.86 1215.53C1925.8 1225.44 1932.27 1234.48 1942.8 1239.81C1949.3 1243.11 1955.93 1246.13 1964.61 1251.27C1982.98 1256.79 2001.06 1263.96 2019.82 1267.43C2044.36 1271.98 2068.77 1277.62 2094.28 1276.96C2118.65 1276.33 2143.09 1279.21 2167.52 1280.08C2182.71 1280.62 2197.97 1279.56 2213.12 1280.5C2233.82 1281.78 2254.1 1279.68 2273.64 1279.59C2269.77 1282.09 2265.77 1284.39 2262.07 1287.12C2253.8 1293.23 2248.3 1301.37 2245.19 1311.16C2242.26 1320.37 2242.75 1328.98 2246.88 1338.08C2253.27 1352.2 2269.82 1362.97 2284.89 1361.23C2303.96 1359.04 2315.28 1348.93 2320.88 1329.08C2326.09 1310.65 2316.93 1291.25 2299.4 1282.96C2295.49 1281.11 2289.83 1281.54 2292.33 1276.13C2294.82 1275.78 2297.31 1275.42 2302.53 1275.56C2304.38 1275.66 2306.23 1275.76 2310.59 1276.91C2340.32 1276.2 2369.59 1278.89 2398.41 1286.83C2407.8 1289.41 2417.87 1289.51 2430.94 1291.78C2436.23 1292.29 2441.61 1292.38 2446.8 1293.38C2473.7 1298.61 2500.84 1300.34 2531.81 1300.26C2549.14 1299.98 2566.47 1299.69 2587.36 1299.71C2597.75 1300.62 2607.88 1300.11 2618.06 1297.02C2627.85 1294.05 2638.09 1292.52 2651.41 1289.63C2659.09 1289.7 2666.77 1289.78 2676.64 1291.54C2695.67 1300.86 2715.18 1309.34 2733.56 1319.79C2744.89 1326.24 2756.71 1329.5 2769.07 1332C2774.25 1333.05 2779.51 1334.07 2784.77 1334.35C2807.19 1335.53 2829.64 1338.29 2855.72 1333.56C2864.33 1333.1 2873.15 1333.65 2881.53 1332C2905.1 1327.36 2928.91 1326.12 2952.79 1325.42C2984.7 1324.49 3016.64 1322.64 3048.53 1323.27C3087.71 1324.05 3126.84 1327.55 3165.24 1335.88C3183.34 1339.81 3201.72 1342.75 3219.14 1349.89C3255.71 1364.87 3285.77 1388.83 3311.62 1417.82C3330.33 1438.82 3339.71 1464.38 3336.89 1493.16C3335.92 1503.05 3334.84 1513.18 3331.77 1522.54C3327.44 1535.7 3321.73 1548.5 3309.02 1556.43C3297.75 1563.45 3286.71 1570.85 3272.25 1578.43C3258.05 1581.02 3244.4 1578.43 3231.54 1572.73C3226.37 1570.45 3221.12 1566.21 3218.26 1561.45C3214.99 1556.04 3214.76 1549.06 3218.73 1541.86C3227.23 1547.52 3236.07 1549.28 3245.48 1546.37C3252.04 1544.34 3256.22 1539.6 3256.54 1533.9C3256.95 1526.57 3253.62 1520.62 3247.07 1517.96C3238.64 1514.53 3230.23 1516.51 3223.87 1517.84C3219.45 1522.22 3216.46 1525.19 3213.47 1528.16C3211.53 1526.22 3210.58 1525.31 3209.67 1524.35C3208.96 1523.6 3208.31 1522.79 3207.37 1521.7C3210.54 1532.05 3210.11 1531.99 3208.35 1544.5C3207.44 1550.94 3207.69 1557.74 3208.7 1564.18C3209.25 1567.71 3211.73 1571.75 3214.57 1573.99C3226.75 1583.57 3239.75 1591.09 3256.39 1586.84C3262.78 1585.2 3269.38 1584.42 3278.74 1583.18C3287.59 1578.61 3296.69 1574.45 3305.24 1569.36C3314.95 1563.57 3325.42 1557.47 3329.94 1546.82C3336.6 1531.09 3343.98 1515.8 3345.63 1497.83C3348.75 1463.73 3338.93 1435.01 3316.3 1410.16C3310.05 1403.3 3302.86 1397.31 3296.18 1390.83C3263.26 1358.91 3224.37 1338.71 3179.11 1330.79C3164.74 1328.27 3150.02 1326.6 3136.23 1322.16C3116.76 1315.88 3096.98 1317.1 3077.21 1316.39C3073.27 1316.25 3069.23 1317.29 3065.37 1316.8C3035.04 1312.93 3004.66 1309.4 2974.49 1304.57C2957.58 1301.86 2941.02 1297.11 2924.6 1291.83C2911.55 1287.63 2898.83 1280.57 2882.87 1280.35C2871 1276.53 2859.19 1272.53 2847.25 1269C2842.86 1267.7 2838.17 1267.18 2833.58 1266.91C2819.05 1266.06 2804.51 1265.26 2789.97 1264.87C2764.83 1264.19 2739.91 1265.96 2715.35 1271.91C2706.44 1274.07 2697.97 1278.14 2688.32 1277.55C2685.68 1277.39 2682.82 1280.77 2677.27 1280.7C2670.76 1279.73 2664.26 1278.77 2655.31 1276.2C2634.64 1269.79 2613.64 1265.19 2588.95 1263.7C2582.06 1264.85 2575.27 1259.24 2564.83 1262.15C2553.26 1261.67 2541.5 1262.34 2530.19 1260.37C2520.67 1258.7 2512.44 1260.69 2500.43 1262.39C2493.26 1262.68 2486.07 1262.83 2478.91 1263.31C2473.8 1263.64 2468.72 1264.41 2463.72 1264.56C2463.72 1264.56 2463.29 1264.54 2461.86 1262.7C2461.29 1262.17 2460.72 1261.63 2461.68 1257.9C2467.44 1246.12 2467.52 1233.45 2467.13 1220.81C2466.83 1211.13 2462.86 1202.64 2455.96 1195.92C2445.11 1185.36 2431.49 1180.75 2416.91 1177.58C2405.66 1175.13 2397.85 1181.33 2389.12 1185.78C2387.34 1186.68 2385.56 1187.61 2383.91 1188.72C2365.29 1201.2 2355.86 1218.08 2358.24 1241.02C2359.17 1249.98 2363.02 1257.47 2366.22 1267.1C2364.9 1268.34 2363.59 1269.57 2359.33 1269.88C2342.4 1269.16 2325.47 1266.9 2306.24 1269.45C2304.16 1270.43 2302.08 1271.4 2296.87 1271.03ZM2222.31 1415.25C2226.25 1405.38 2222.95 1397.32 2216.35 1389.82C2202.71 1374.29 2200.17 1373.73 2181.56 1386.03C2173.17 1391.57 2171.58 1401.88 2176.87 1410.49C2187.36 1427.6 2201.78 1429.98 2222.31 1415.25ZM2152.76 1452.1C2149.46 1452.02 2146.05 1451.35 2142.89 1451.97C2134.93 1453.53 2131.67 1457.72 2131.34 1465.69C2130.89 1476.45 2141.88 1485.25 2152.79 1482.87C2161.62 1480.95 2166.29 1473.35 2163.05 1464.9C2161.44 1460.7 2158.18 1457.14 2152.76 1452.1Z" fill="#CB935E"/>
<path d="M1123.97 1264.62C1130.96 1273.01 1140.11 1278.74 1149.98 1282.44C1175.5 1292 1201.32 1300.78 1227.17 1309.42C1232.72 1311.27 1238.91 1311.81 1244.81 1311.86C1273.44 1312.1 1302.21 1313.7 1330.67 1311.47C1356.84 1309.43 1383.38 1308.81 1408.72 1298.34C1431.91 1288.77 1456.6 1282.86 1480.54 1275.07C1488.11 1272.61 1495.58 1269.67 1502.8 1266.31C1525.54 1255.73 1549.41 1251.31 1574.4 1251.79C1580.31 1251.91 1586.37 1251.11 1592.14 1249.8C1601.43 1247.68 1610.52 1247.33 1619.74 1249.85C1622.27 1250.54 1625.08 1251.35 1627.54 1250.9C1648.07 1247.12 1666.51 1255.63 1685.39 1260.87C1694.96 1263.53 1703.96 1267.87 1714.2 1268.32C1718.69 1268.52 1723.14 1270.49 1727.54 1271.87C1741.48 1276.23 1755.34 1280.87 1769.33 1285.05C1779.5 1288.09 1789.51 1291.08 1798.53 1297.13C1817.19 1309.67 1836.23 1321.65 1855.03 1333.99C1857.78 1335.8 1860.09 1338.29 1862.51 1340.58C1888.55 1365.23 1913.91 1390.66 1940.79 1414.36C1971.65 1441.56 2000.96 1470.58 2033.82 1495.45C2047 1505.42 2061.13 1514.11 2074.76 1523.48C2081.33 1527.99 2087.59 1532.94 2094.25 1537.29C2131.07 1561.33 2169.31 1582.73 2210.32 1598.89C2213.4 1600.11 2216.85 1600.74 2219.57 1602.5C2245.5 1619.3 2275.03 1628.08 2302.97 1640.4C2312.55 1644.62 2323.64 1645.94 2331.06 1656.81C2319.61 1664.4 2308.62 1670.49 2294.7 1671.17C2283.71 1671.1 2273.96 1672.34 2264.23 1672.21C2250.04 1672.02 2237.13 1676.58 2224.24 1681.42C2218.82 1683.45 2213.71 1686.27 2206.95 1688.73C2200.03 1686.43 2193.88 1685.12 2189.37 1681.66C2179.16 1673.82 2167.03 1671.11 2155.41 1666.94C2151.75 1665.63 2147.96 1664.66 2143.26 1662.69C2138.98 1661.58 2135.66 1661.31 2130.75 1660.98C2123.99 1661.48 2118.82 1662.04 2111.96 1662.59C2093.54 1665.98 2076.92 1662.84 2058.8 1661.11C2047.53 1656.86 2037.32 1653.81 2027.99 1649.06C2006.64 1638.18 1982.87 1635.31 1960.6 1627.57C1959.37 1627.14 1958.01 1627.01 1956.69 1626.89C1935.09 1624.97 1913.5 1622.57 1890.04 1624.83C1880.1 1625.14 1871.9 1625.78 1862.85 1626.2C1860.77 1626.04 1859.73 1626.52 1857.1 1627.46C1852.04 1628.04 1848.73 1628.43 1845.49 1629.14C1832.63 1631.97 1821.1 1629.55 1809.04 1623.8C1799.52 1619.26 1791.13 1613.06 1781.76 1608.61C1757.82 1597.23 1733.46 1586.8 1707.98 1579.22C1704.18 1578.09 1700.46 1576.56 1696.58 1575.85C1680.99 1572.98 1665.33 1570.54 1649.76 1567.59C1630.19 1563.88 1610.64 1560.64 1590.6 1562.78C1583.99 1563.48 1577.33 1563.9 1570.69 1563.99C1546.34 1564.31 1523.72 1572.03 1501.4 1580.55C1481.57 1588.11 1467.7 1603.97 1453.34 1618.59C1443.96 1628.14 1451 1645.91 1464.33 1648.03C1471.27 1649.14 1477.6 1646.79 1481.96 1641C1485.55 1636.24 1485.05 1631.04 1482.18 1626.05C1480.31 1622.79 1478.23 1619.65 1475.65 1615.51C1482.13 1610.23 1487.66 1605.61 1493.31 1601.13C1510.59 1587.41 1531.7 1583.79 1552.32 1578.9C1566.07 1575.64 1579.66 1575.76 1593.71 1578.38C1611.58 1581.71 1628.18 1587.72 1643.87 1596.59C1659.57 1605.46 1675.96 1612.56 1693.51 1616.89C1696.69 1617.67 1699.88 1619.02 1702.63 1616.07C1702.5 1616 1702.22 1615.99 1701.85 1617.56C1705.16 1625.83 1712.28 1626.43 1718.47 1628.15C1731.88 1631.88 1745.52 1634.79 1758.95 1638.43C1769.92 1641.41 1780.71 1642.92 1792.28 1641.87C1810.82 1640.18 1828.97 1641.74 1846.39 1650.42C1897.34 1675.82 1951.27 1690.9 2008.19 1695.19C2022.25 1696.25 2035.96 1695.69 2049.61 1692.14C2056.66 1690.3 2063.78 1688.2 2070.98 1687.65C2081.78 1686.82 2091.59 1683.05 2101.52 1679.44C2108.99 1676.73 2116.35 1673.72 2125.25 1671.03C2128.67 1670.75 2130.61 1670.28 2133.9 1670.19C2138.06 1670.64 2140.86 1670.71 2144.99 1671.47C2165.33 1678.85 2183.68 1686.98 2200.98 1697.39C2191.93 1711.32 2183.41 1725.64 2173.69 1739.09C2161.94 1755.35 2156.96 1773.35 2155.19 1793.04C2153.46 1812.27 2152.54 1831.5 2151.25 1850.72C2149.65 1874.56 2138.99 1895.84 2122.46 1912.9C2115.92 1919.65 2105.37 1922.95 2096.12 1926.42C2092.32 1927.85 2086.86 1926.35 2082.62 1924.86C2062.02 1917.6 2044.93 1905.67 2032.7 1887.05C2011.11 1854.2 1979.35 1835.31 1942.34 1825.69C1926.46 1821.56 1909.35 1822.82 1892.94 1827.19C1884.63 1829.41 1875.93 1830.2 1867.67 1832.55C1858.12 1835.26 1848.85 1838.95 1839.48 1842.28C1835.1 1843.84 1830.87 1846.64 1826.41 1847.04C1805.19 1848.92 1787.5 1859.78 1768.72 1868.18C1751.16 1876.04 1734.96 1886.24 1717.9 1894.9C1710.28 1898.76 1701.73 1900.72 1693.8 1904.03C1683.99 1908.13 1674.36 1912.66 1664.71 1917.13C1658.09 1920.2 1651.85 1924.13 1644.13 1924.23C1641.59 1924.26 1638.67 1925.01 1636.59 1926.42C1611.22 1943.55 1581.18 1948.76 1552.96 1958.04C1531.84 1964.99 1509.55 1970.49 1486.38 1968.31C1478.65 1967.58 1470.64 1970.46 1462.75 1970.57C1435.13 1970.96 1407.53 1976.33 1379.9 1967.46C1367.64 1963.53 1355.23 1958.94 1341.91 1957.9C1329.4 1956.92 1316.81 1954.97 1304.66 1951.88C1290.27 1948.22 1274.67 1946.64 1263.91 1934.3C1254.36 1931.11 1248.7 1921.78 1238.78 1918.76C1234.74 1917.53 1231.53 1913.23 1228.24 1910.02C1220.58 1902.56 1212.47 1895.91 1203.03 1890.59C1193.21 1885.06 1183.95 1878.4 1174.95 1871.58C1160.63 1860.74 1146.91 1849.11 1132.59 1838.28C1120.98 1829.49 1108.3 1822.32 1097.14 1812.68C1080.98 1798.72 1064.79 1785.07 1052.56 1767.3C1049.95 1763.51 1046.17 1760.53 1043.08 1757.04C1024.99 1736.62 1007.04 1716.07 988.837 1695.76C981.282 1687.32 973.052 1679.49 965.427 1671.12C954.721 1659.36 945.874 1646.37 937.108 1633C924.066 1613.1 910.847 1592.99 894.405 1575.41C886.692 1567.17 879.668 1558.28 872.393 1549.62C860.797 1535.84 847.681 1523.83 832.669 1513.74C827.246 1510.1 822.955 1504.71 818.346 1499.93C805.341 1486.43 791.16 1473.95 774.836 1465.14C742.224 1447.55 711.254 1426.19 674.137 1418.05C668.357 1416.78 662.89 1413.99 657.355 1411.72C624.427 1398.2 589.462 1393.53 554.703 1387.9C525.233 1383.12 495.87 1377.64 466.338 1373.3C442.754 1369.83 419.123 1364.76 395.069 1370.55C390.613 1371.63 385.735 1371.7 381.133 1371.3C362.651 1369.69 344.922 1374.65 328.562 1381.25C315.541 1386.5 301.182 1391.34 291.201 1403.04C286.488 1408.56 280.732 1413.4 274.796 1417.63C254.142 1432.36 240.448 1452.63 228.656 1474.43C225.182 1480.86 222.513 1487.72 219.563 1494.42C218.032 1497.9 215.567 1499.78 211.774 1498.84C207.43 1497.77 204.988 1494.76 204.924 1490.26C204.896 1488.31 205.374 1486.28 206.006 1484.42C208.993 1475.59 211.811 1466.69 215.255 1458.04C220.917 1443.83 227.363 1429.92 232.832 1415.63C238.419 1401.04 247.48 1388.67 257.185 1376.88C274.965 1355.29 293.144 1333.99 315.765 1317.05C320.003 1313.87 323.277 1309.42 327.473 1306.18C333.232 1301.72 339.082 1297.13 345.545 1293.89C356.847 1288.24 368.502 1283.21 380.268 1278.58C396.369 1272.24 412.593 1266.17 428.982 1260.62C452.448 1252.67 476.922 1249.96 501.464 1247.86C510.068 1247.12 518.654 1246.16 527.268 1245.58C533.905 1245.14 540.825 1243.9 547.177 1245.19C567.013 1249.22 587.005 1247.72 606.944 1248.43C619.55 1248.88 632.117 1250.36 644.713 1251.18C652.025 1251.66 659.387 1252.28 666.682 1251.93C688.895 1250.86 710.372 1254.66 731.825 1259.95C782.217 1272.39 831.889 1287.41 881.901 1301.2C901.163 1306.51 920.518 1311.04 940.572 1312.72C953.796 1313.83 966.81 1316.75 980.267 1315.9C1029.15 1312.79 1074.37 1299.12 1116.36 1268.81C1120.21 1266.52 1122.09 1265.57 1123.97 1264.62Z" fill="#E0AE71"/>
<path d="M3382.41 1776.37C3391.37 1746.88 3407.64 1720.32 3424.05 1693.64C3435.53 1675.01 3447.28 1656.54 3459.13 1638.17C3472.16 1617.99 3488.4 1600.52 3509.09 1587.7C3512.48 1585.59 3516.15 1583.9 3519.37 1581.57C3544.1 1563.73 3572.8 1558.84 3602.13 1555.95C3607.41 1555.43 3612.84 1555.65 3617.99 1554.53C3638.6 1550.03 3659 1551.09 3679.19 1556.56C3702.92 1563 3726.96 1568.67 3750.07 1576.9C3768.04 1583.29 3785.61 1591.03 3802.79 1599.91C3829.82 1613.9 3856.66 1628.87 3886.63 1636.5C3901.41 1640.26 3915.73 1645.88 3930.54 1649.48C3946.64 1653.39 3962.96 1657.26 3979.39 1658.69C3994.43 1660 4009.75 1658.09 4024.93 1657.46C4031.56 1657.18 4038.17 1656.52 4044.8 1656.06C4072.17 1654.13 4122.77 1648.6 4149.71 1635.98C4180.3 1621.65 4213.02 1611.47 4240.45 1590.7C4250.77 1582.88 4263.46 1580.19 4275.56 1576.91C4288.43 1573.41 4301.36 1570.36 4313.12 1563.91C4320.12 1560.07 4327.2 1559.63 4334.22 1562.88C4346.22 1568.44 4358.63 1573.47 4369.75 1580.5C4392.81 1595.06 4416.32 1608.57 4441.57 1619C4457.56 1625.6 4473.27 1632.86 4490.62 1640.91C4492.13 1642 4492.27 1643.65 4492.27 1643.65C4472.65 1670.4 4453.17 1697.25 4433.3 1723.81C4428.96 1729.62 4423.31 1734.48 4418.16 1739.68C4408.78 1749.13 4399.19 1758.37 4389.93 1767.93C4378.35 1779.89 4366.05 1790.97 4352.67 1800.93C4339.91 1810.44 4328.34 1821.71 4315.02 1830.28C4295.51 1842.83 4278.97 1859.74 4257.46 1869.26C4256.24 1869.8 4255.05 1870.43 4253.94 1871.16C4217.66 1895.18 4177.53 1910.68 4136.59 1924.5C4119.59 1930.23 4102.9 1936.88 4085.96 1942.8C4067.65 1949.19 4048.91 1952.26 4029.31 1952.34C4003.24 1952.46 3977.77 1949.62 3952.27 1944.36C3914.58 1936.6 3876.71 1929.76 3839.47 1919.92C3820.08 1914.79 3801.84 1906.87 3784.85 1896.31C3757.76 1879.47 3730.01 1863.93 3700.62 1851.43C3697.59 1850.14 3694.95 1847.97 3691.96 1846.57C3679.94 1840.96 3667.89 1835.39 3655.78 1829.99C3649.11 1827.01 3641.87 1825.12 3635.59 1821.5C3610.56 1807.07 3582.75 1800.36 3555.54 1791.98C3544.12 1788.47 3532.51 1785.56 3521.01 1782.32C3508.2 1778.72 3495.39 1775.41 3481.88 1775.64C3478 1775.71 3474.04 1774.37 3470.2 1773.36C3441.15 1765.68 3412.39 1765.97 3382.41 1776.37Z" fill="#D1ACBD"/>
<path d="M1124.78 1263.51C1122.09 1265.57 1120.21 1266.52 1117.35 1267.88C1109.88 1261.69 1103.53 1254.96 1096.87 1248.55C1093.54 1245.35 1088.79 1243.36 1086.15 1239.74C1074.75 1224.18 1058.75 1213.13 1046.93 1197.73C1033.15 1179.76 1019.16 1162.12 1008.32 1142.2C994.283 1116.41 975.247 1094.23 957.033 1071.51C947.9 1060.12 936.963 1050.12 924.183 1042.62C912.138 1035.54 903.001 1024.65 890.05 1018.51C872.616 1010.24 855.508 1001.73 835.975 999.586C831.404 999.084 827.014 997.114 822.465 996.198C814.691 994.633 806.869 993.296 799.045 991.995C790.546 990.582 781.971 989.588 773.522 987.939C754.027 984.134 734.048 982.291 716.045 972.591C695.567 961.558 674.775 951.11 654.212 940.232C642.835 934.213 634.358 924.668 625.545 915.605C610.211 899.836 595.413 883.606 587.514 862.555C582.621 849.513 577.242 836.526 573.868 823.066C564.224 784.602 548.913 748.651 527.412 715.466C514.857 696.087 497.405 684.038 469.551 684.399C474.445 688.037 476.613 689.994 479.083 691.428C493.147 699.588 505.114 709.793 512.544 724.636C513.426 726.4 514.656 728.048 515.974 729.528C534.27 750.067 539.886 774.871 540.105 801.44C540.213 814.725 541.281 828.192 535.158 840.687C533.117 844.854 531.646 849.868 528.379 852.764C517.49 862.419 506.025 871.444 494.49 880.335C492.011 882.246 488.392 883.11 485.173 883.554C473.357 885.183 461.504 886.586 449.635 887.791C429.338 889.852 409.912 885.646 390.916 878.982C384.019 876.563 377.04 874.162 370.55 870.864C364.697 867.89 358.969 864.265 354.037 859.952C329.139 838.181 309.317 812.613 296.723 781.743C292.693 771.865 288.422 762.128 287.88 751.253C287.749 748.603 287.926 745.662 286.85 743.378C279.581 727.942 279.635 710.935 277.139 694.665C274.738 679.025 276.282 662.783 276.054 646.806C275.864 633.478 275.752 620.163 279.873 607.255C282.69 598.429 285.05 589.423 288.434 580.819C298.93 554.135 311.406 528.591 330.234 506.457C339.027 496.12 349.125 488.408 361.425 482.754C377.302 475.455 394.026 471.419 410.852 467.365C422.422 464.577 433.337 459.969 445.734 459.713C473.006 459.15 498.256 465.996 522.437 477.713C534.355 483.489 546.009 489.819 557.649 496.148C560.466 497.68 562.907 500.033 565.252 502.289C579.573 516.065 594.012 529.728 608.006 543.83C615.461 551.342 622.179 559.595 629.06 567.659C630.758 569.65 632.455 572.059 633.013 574.532C635.314 584.728 642.7 591.793 648.07 600.099C665.727 627.409 683.687 654.532 700.849 682.15C708.969 695.219 717.85 707.546 728.532 718.529C741.47 731.834 753.663 745.765 768.809 756.995C780.289 765.506 792.701 771.289 805.829 775.811C818.359 780.128 831.414 782.353 844.571 784.573C861.806 787.482 879.011 786.902 896.178 788.345C917.512 790.138 937.162 795.677 954.314 810.988C966.349 821.731 974.19 833.323 979.626 848.016C985.983 865.196 988.957 882.521 988.028 900.772C987.454 912.068 988.267 923.431 987.843 934.741C987.48 944.437 989.752 953.281 994.776 961.373C1001.09 971.545 1007.16 981.973 1014.53 991.348C1018.92 996.931 1025.46 1000.91 1031.3 1005.26C1058.03 1025.14 1085.87 1043.26 1115.92 1057.83C1119.51 1059.58 1123.01 1061.67 1126.78 1062.88C1143.46 1068.26 1158.06 1077.48 1172.67 1086.8C1180.48 1091.77 1188.89 1095.81 1196.56 1100.97C1205.35 1106.89 1213.76 1113.4 1222.07 1119.98C1233.48 1129.02 1245.93 1134.25 1262.49 1132.1C1252.54 1145.67 1241.05 1159.38 1229.14 1172.72C1217.59 1185.66 1203.84 1196.15 1190.17 1206.75C1174.49 1218.91 1158.09 1230.17 1145.72 1246.34C1140.66 1252.95 1132.4 1257.12 1124.78 1263.51ZM415.761 697.69C413.046 699.598 409.98 701.158 407.684 703.479C401.41 709.823 399.45 717.256 404.7 725.076C411.706 735.508 419.024 745.744 426.644 755.732C427.729 757.154 432.23 757.846 433.433 756.834C435.007 755.511 435.772 751.945 435.254 749.724C434.537 746.653 432.844 743.39 430.613 741.17C423.588 734.177 422.72 726.135 425.46 717.242C427.766 709.753 429.216 702.163 430.609 692.304C425.01 693.946 421.54 694.964 415.761 697.69Z" fill="#D1ACBD"/>
<path d="M3063.51 1623.85C3079.64 1622.86 3095.26 1626.88 3110.8 1629.89C3129.67 1633.56 3148.33 1638.76 3166.64 1644.69C3190.68 1652.47 3206.94 1669.58 3217.89 1691.94C3227.02 1710.59 3232.65 1730.41 3235.84 1750.86C3237.78 1763.28 3238.69 1775.87 3240.26 1788.35C3242.08 1802.74 3248.84 1815.61 3258.46 1825.33C3265.47 1832.41 3276.65 1836.26 3286.67 1839.08C3291.35 1840.39 3298.62 1837.11 3303.09 1833.75C3318.99 1821.79 3334.37 1809.12 3349.57 1796.26C3355.76 1791.02 3361.7 1785.89 3371.48 1784.57C3370.89 1790.16 3369.72 1796.32 3366.55 1801.17C3356.74 1816.18 3346.61 1831.01 3335.78 1845.3C3321.63 1863.98 3303.73 1878.73 3284.24 1891.63C3258.78 1908.5 3233.6 1925.78 3208.02 1942.46C3187.47 1955.84 3166.19 1967.44 3142.94 1976.28C3123.51 1983.67 3103.28 1986.26 3083.73 1992.17C3073.6 1995.24 3063.13 1997.17 3052.77 1999.44C3026.14 2005.26 2999.07 2007.08 2971.94 2007.64C2963.4 2007.81 2954.83 2006.11 2946.27 2005.23C2941.65 2004.76 2937.05 2004.16 2932.42 2003.76C2930.44 2003.59 2928.43 2003.71 2926.44 2003.81C2892.27 2005.53 2858.92 2001.75 2826.31 1990.72C2815.15 1986.94 2803.01 1986.07 2791.33 1983.78C2770.52 1979.7 2749.51 1976.58 2731.02 1964.7C2724.46 1960.49 2716.73 1957.37 2709.1 1955.68C2692.33 1951.97 2675.02 1950.57 2658.44 1946.23C2640.55 1941.54 2625.05 1944.75 2610.32 1954.94C2609.25 1955.68 2607.94 1956.54 2606.74 1956.55C2589.58 1956.67 2572.71 1962.28 2555.43 1959.54C2551.55 1958.93 2547.13 1958.26 2544.14 1956.03C2530.82 1946.12 2517.33 1935.94 2511.42 1919.57C2505.11 1902.08 2499.57 1884.3 2493.97 1866.56C2486.97 1844.37 2479.87 1822.24 2469 1801.54C2464.41 1792.79 2459.84 1784.03 2453.74 1773.84C2451.21 1771.92 2450.16 1771.52 2449.07 1771.21C2448.94 1769.88 2449.23 1768.32 2448.62 1767.27C2434.64 1742.98 2419.48 1720.2 2393.61 1706.03C2371.3 1693.81 2348.3 1683.77 2324 1674.21C2334.52 1668.28 2345.24 1664.08 2356.98 1660.91C2387.5 1674.24 2418.67 1679.54 2450.09 1683.66C2457.29 1684.61 2464.73 1683.84 2471.91 1684.86C2484.97 1686.71 2497.88 1689.56 2510.93 1691.53C2522.68 1693.3 2534.49 1694.89 2546.34 1695.74C2558.19 1696.6 2570.14 1695.35 2581.81 1699.26C2586.79 1700.92 2592.45 1700.54 2597.61 1695.59C2609.8 1700.83 2620.41 1706.21 2631.35 1710.76C2655.08 1720.64 2678.76 1730.72 2704.84 1737.71C2720.98 1743.48 2736.14 1748.32 2751.39 1752.9C2756.45 1754.42 2761.66 1755.82 2766.89 1756.31C2800.01 1759.38 2832.63 1765.36 2864.76 1773.73C2879.22 1777.5 2893.2 1775.47 2905.3 1769.06C2917.96 1762.35 2931.02 1758.62 2944.64 1755.93C2957.83 1753.33 2970.09 1748.45 2982.02 1742.54C2986.62 1740.25 2991.3 1737.82 2992.09 1731.91C2992.02 1731.96 2991.89 1732.03 2992.32 1733.07C2993.5 1734 2994.24 1733.89 2996.49 1733.45C3036.6 1713.7 3056.36 1681.28 3062.42 1639.49C3063.17 1634.33 3063.17 1629.06 3063.51 1623.85Z" fill="#E0AE71"/>
<path d="M4493.64 1643.9C4492.27 1643.65 4492.13 1642 4492.05 1641.17C4499.51 1632.97 4508.68 1626.64 4514.24 1617.99C4524.75 1601.61 4537.85 1587.82 4551.52 1574.34C4554.34 1571.56 4556.83 1568.45 4560.33 1564.28C4562.46 1563.48 4563.75 1563.9 4566.01 1564.6C4578.41 1578.73 4589.53 1592.85 4601.38 1606.33C4607.48 1613.26 4614.34 1619.76 4621.77 1625.22C4635.69 1635.45 4650.06 1645.12 4664.63 1654.41C4682.92 1666.06 4703.67 1671.29 4724.67 1675.15C4742.96 1678.51 4761.34 1681.77 4779.83 1683.4C4805.52 1685.67 4829.12 1694.12 4852.28 1704.51C4865.02 1710.23 4878.01 1715.51 4890.37 1721.97C4899.15 1726.56 4907.75 1731.99 4915.25 1738.43C4943.29 1762.49 4961.62 1792.86 4971.51 1828.4C4980.55 1860.89 4996.11 1890.09 5016.16 1917.05C5022.32 1925.34 5030.63 1930.75 5039.66 1935.07C5042.3 1936.33 5045.91 1935.57 5051.67 1935.88C5048.49 1931.36 5046.96 1928.71 5044.98 1926.47C5037.52 1918.01 5029.77 1909.81 5022.41 1901.27C5004.45 1880.44 4998.78 1855.75 4999.89 1828.9C5000.44 1815.61 5005.06 1804.23 5014.81 1795.16C5028.62 1782.31 5043.46 1772.49 5063.34 1770.18C5090.2 1767.05 5116.05 1768.21 5142.23 1775.66C5162.89 1781.53 5178.86 1792.64 5194.15 1807.24C5218.6 1830.58 5234.8 1857.8 5241.44 1890.84C5244.71 1907.12 5249.84 1923.26 5250.97 1939.68C5252.74 1965.46 5251.75 1991.52 5243.19 2016.33C5234.24 2042.27 5220.84 2065.85 5202.97 2086.86C5190.83 2101.13 5175.34 2109.58 5157.65 2114.57C5141.01 2119.26 5124.47 2124.4 5107.63 2128.29C5091.96 2131.92 5076.29 2128.52 5060.55 2126.62C5033.46 2123.34 5010.26 2110.07 4985.95 2099.56C4983.02 2098.29 4980.48 2095.96 4978 2093.83C4962.37 2080.42 4947.04 2066.66 4931.17 2053.54C4916.96 2041.8 4909.19 2025.28 4898.5 2010.97C4881.39 1988.07 4865.76 1964.07 4848.48 1941.31C4829.11 1915.83 4807.44 1892.4 4779.79 1875.43C4760.72 1863.71 4739.54 1858.27 4717.57 1856.01C4693.81 1853.56 4669.74 1853.36 4646.25 1849.5C4618.69 1844.96 4597.38 1830.83 4585.97 1803.32C4578.84 1786.14 4577.25 1768.92 4578.7 1750.96C4579.79 1737.51 4579.17 1723.55 4573.41 1711.93C4565.83 1696.64 4556.2 1681.74 4540.98 1672.2C4525.78 1662.66 4510.35 1653.49 4493.64 1643.9ZM5127.6 1921.64C5130.77 1917.79 5132.32 1913.49 5129.89 1908.81C5124.07 1897.62 5117.45 1886.94 5107.43 1878.93C5104.76 1876.8 5101.5 1875.98 5098 1880.24C5099.29 1882.63 5100.12 1886.26 5102.39 1888.01C5112.49 1895.81 5113 1905.14 5109.05 1916.33C5107.49 1920.75 5103.82 1925.86 5107.97 1930.99C5117.37 1929.86 5117.41 1929.93 5127.6 1921.64ZM5058.93 1938.77C5059.54 1938.35 5060.16 1937.93 5060.78 1937.5C5059.89 1937.58 5059.01 1937.67 5058.93 1938.77Z" fill="#E0AE72"/>
<path d="M2182.93 1014.86C2176.75 1038.31 2163.63 1057.6 2149.14 1075.75C2142.23 1084.41 2132.76 1091.22 2123.79 1097.99C2109.55 1108.75 2096.24 1120.91 2078.79 1126.95C2071.83 1129.36 2065.26 1132.49 2057.71 1132.16C2057.05 1132.14 2056.3 1132.07 2055.73 1132.33C2037.09 1140.68 2016.68 1139.21 1997.17 1142.66C1977.33 1146.17 1957.42 1144.67 1937.99 1138.72C1912.56 1130.93 1887.08 1123.34 1861.69 1115.44C1857.97 1114.29 1854.63 1111.89 1851.13 1110.04C1835.37 1101.73 1819.02 1094.76 1804.06 1084.63C1789.83 1075 1773.69 1068.2 1758.4 1060.13C1751.95 1056.73 1745.84 1052.33 1739.03 1050.04C1711.33 1040.73 1683.59 1031.48 1655.51 1023.42C1642.22 1019.61 1628.18 1018.32 1614.41 1016.37C1609.88 1015.73 1604.82 1015.64 1600.55 1017C1589.46 1020.54 1578.17 1019.84 1566.89 1020.01C1556.26 1020.17 1545.63 1019.52 1535.26 1023.13C1531.63 1024.39 1527.35 1024 1523.37 1023.95C1512.65 1023.81 1502.05 1023.8 1492.34 1029.52C1490.13 1030.82 1487.16 1031.89 1484.73 1031.57C1467.57 1029.35 1454.02 1039.43 1439.43 1045.18C1424.13 1051.21 1410.16 1060.26 1394.48 1065.9C1385.97 1068.96 1378.42 1075.14 1371.02 1080.69C1360.4 1088.66 1347.27 1092.92 1338.28 1103.29C1336.63 1105.19 1334.02 1106.64 1331.57 1107.4C1313.88 1112.94 1296.11 1118.25 1276.76 1123.47C1275.58 1122.05 1275.69 1120.52 1276.48 1119.57C1300.18 1090.98 1322.85 1061.87 1351.22 1037.04C1383.98 1008.36 1419.56 984.07 1455.4 959.996C1479.64 943.714 1505.82 930.663 1532.75 918.86C1572.57 901.411 1614.89 891.792 1655.52 877.007C1664.11 873.877 1673.7 873.385 1682.88 871.971C1689.44 870.961 1696.05 870.317 1702.67 869.746C1707.96 869.289 1713.36 868.484 1718.57 869.062C1733.74 870.743 1748.92 872.591 1763.96 875.193C1794.07 880.404 1823.99 886.777 1854.16 891.531C1890.19 897.205 1923.32 910.077 1955.02 927.704C1971.84 937.058 1989.27 945.47 2006.91 953.191C2031.25 963.844 2056.05 973.479 2080.68 983.483C2111.58 996.034 2143.83 1004.12 2176.07 1012.27C2178 1012.75 2179.9 1013.36 2182.93 1014.86Z" fill="#E0AE71"/>
<path d="M2355.96 1659.88C2345.24 1664.08 2334.52 1668.28 2322.56 1673.38C2304.53 1676.43 2291.14 1686.93 2275.88 1692.83C2269.16 1695.43 2262.64 1698.53 2255.85 1700.91C2243.11 1705.38 2230.33 1706.77 2217.38 1701.05C2213.24 1699.22 2208.49 1698.72 2202.5 1697.5C2183.68 1686.98 2165.33 1678.85 2145.06 1670.26C2143.94 1666.75 2144.08 1665.15 2144.23 1663.54C2147.96 1664.66 2151.75 1665.63 2155.41 1666.94C2167.03 1671.11 2179.16 1673.83 2189.37 1681.66C2193.88 1685.12 2200.03 1686.43 2208.05 1689.63C2213.08 1691.53 2215.44 1692.71 2217.92 1693.49C2230.76 1697.47 2243.01 1698.28 2255.61 1691.1C2268.51 1683.74 2282.45 1678.2 2295.94 1671.86C2308.63 1670.49 2319.62 1664.4 2331.78 1658.1C2350.68 1653.29 2368.68 1649.2 2386.87 1646.21C2396.58 1644.61 2406.6 1644.92 2418.29 1645.55C2420.12 1648.36 2420.13 1649.99 2418.34 1651.85C2396.02 1652.16 2375.73 1653.96 2355.96 1659.88Z" fill="#3D3629"/>
<path d="M1459.03 2067.85C1459.14 2065.95 1459.94 2064.54 1460.74 2063.14C1461.64 2063.86 1462.55 2064.58 1463.46 2065.3C1462.21 2066.32 1460.97 2067.34 1459.03 2067.85Z" fill="#C58F5C"/>
<path d="M2448.17 1771.74C2450.16 1771.52 2451.21 1771.92 2452.71 1772.49C2452.65 1775.97 2451.09 1778.11 2447.45 1776.39C2446.87 1776.11 2447.31 1773.7 2448.17 1771.74Z" fill="#C58F5C"/>
<path d="M2884.25 1282.63C2898.83 1280.57 2911.55 1287.63 2924.6 1291.83C2941.02 1297.11 2957.58 1301.86 2974.49 1304.57C3004.66 1309.4 3035.04 1312.93 3065.37 1316.8C3069.23 1317.29 3073.27 1316.25 3077.21 1316.39C3096.98 1317.1 3116.76 1315.88 3136.23 1322.16C3150.02 1326.6 3164.74 1328.27 3179.11 1330.79C3224.37 1338.71 3263.26 1358.91 3296.18 1390.83C3302.86 1397.31 3310.05 1403.3 3316.3 1410.16C3338.93 1435.01 3348.75 1463.73 3345.63 1497.83C3343.98 1515.8 3336.6 1531.09 3329.94 1546.82C3325.42 1557.47 3314.95 1563.57 3305.24 1569.36C3296.69 1574.45 3287.59 1578.61 3277.2 1581.92C3275.64 1579.8 3275.61 1578.94 3275.58 1578.08C3286.72 1570.84 3297.75 1563.45 3309.02 1556.43C3321.73 1548.5 3327.45 1535.7 3331.77 1522.53C3334.84 1513.18 3335.92 1503.05 3336.89 1493.16C3339.72 1464.38 3330.34 1438.82 3311.62 1417.82C3285.77 1388.83 3255.72 1364.87 3219.14 1349.89C3201.72 1342.75 3183.34 1339.81 3165.24 1335.88C3126.84 1327.55 3087.71 1324.05 3048.53 1323.27C3016.65 1322.64 2984.7 1324.49 2952.79 1325.42C2928.91 1326.12 2905.1 1327.36 2881.53 1332C2873.15 1333.65 2864.33 1333.1 2853.96 1332.41C2852.19 1330.45 2852.17 1329.64 2853.56 1328.3C2858.71 1326.58 2862.67 1323.93 2866.16 1324.46C2881.26 1326.76 2895.92 1323.58 2910.55 1321.4C2922.23 1319.65 2933.99 1319.99 2945.77 1317.66C2956.91 1315.46 2969.16 1319.1 2980.95 1319.84C2983.55 1320.01 2986.23 1318.76 2988.88 1318.17C2971.56 1311.68 2954.11 1308.57 2937.09 1303.91C2919.24 1299.03 2901.81 1292.67 2884.27 1285.87C2884.31 1284.07 2884.28 1283.35 2884.25 1282.63Z" fill="#232018"/>
<path d="M2427.63 1290.74C2417.87 1289.51 2407.8 1289.41 2398.41 1286.83C2369.59 1278.89 2340.32 1276.2 2309.38 1275.36C2308.28 1272.44 2308.4 1271.07 2308.53 1269.7C2325.47 1266.9 2342.4 1269.17 2361.88 1270.57C2368.12 1270.42 2368.64 1267.99 2367.67 1264.81C2363.02 1257.48 2359.17 1249.98 2358.24 1241.02C2355.86 1218.08 2365.29 1201.2 2383.91 1188.72C2385.56 1187.61 2387.34 1186.68 2389.12 1185.78C2397.85 1181.33 2405.66 1175.13 2416.91 1177.58C2431.49 1180.75 2445.12 1185.36 2455.96 1195.92C2462.86 1202.64 2466.83 1211.13 2467.13 1220.81C2467.52 1233.45 2467.44 1246.12 2460.88 1260.2C2461.14 1263.18 2462.22 1263.86 2463.29 1264.54C2463.29 1264.54 2463.72 1264.56 2463.7 1265.25C2463.67 1265.94 2463.88 1266.88 2462.48 1267.04C2457.29 1269.34 2453.38 1271.27 2449.78 1273.67C2446.7 1275.74 2443.98 1278.34 2439.74 1280.62C2432.12 1281.11 2428.5 1284.48 2427.63 1290.74ZM2422.71 1258.91C2427.09 1254.98 2432.24 1251.62 2435.73 1247.01C2447.9 1230.91 2441.44 1210.82 2422.33 1203.89C2407.59 1198.54 2392.92 1204.76 2384.09 1220.12C2376.61 1233.11 2378.33 1243.95 2389.54 1253.74C2394.15 1257.76 2399.32 1260.53 2405.7 1260.25C2410.33 1260.05 2414.97 1259.93 2422.71 1258.91Z" fill="#13100D"/>
<path d="M2951.97 1703.85C2953.2 1682.78 2960.17 1664.74 2975.91 1649.53C2988.73 1637.14 3001.62 1627.48 3020.35 1627.54C3027.45 1627.56 3034.56 1625.36 3043.06 1625.58C3042.34 1634.05 3038.4 1639.88 3033.11 1645.04C3027.96 1650.06 3022.95 1655.31 3018.57 1660.99C3009.67 1672.56 2999.01 1681.83 2985.74 1687.94C2981.49 1689.9 2977.37 1691.77 2975.45 1697.33C2973.73 1698.34 2972.92 1699.11 2972.2 1700C2972.12 1699.93 2972.03 1700.12 2970.74 1700.2C2967.07 1703.67 2968.74 1704.44 2973.47 1704.28C2985.25 1698.65 2995.64 1693.08 3005.83 1687.15C3016.22 1681.11 3025.02 1673.23 3032.2 1663.51C3037.45 1656.39 3042.99 1649.48 3051.59 1642.46C3050.62 1657.71 3045.62 1669.14 3039.15 1679.78C3029.19 1696.13 3018.97 1712.44 3001.71 1722.53C2999.52 1723.81 2997.87 1726.03 2994.73 1727.8C2992.96 1729.21 2992.42 1730.62 2991.89 1732.03C2991.89 1732.03 2992.02 1731.96 2990.53 1731.57C2981.83 1730.14 2976.78 1734.58 2971.32 1738.1C2961.85 1744.22 2951.56 1747.72 2940.37 1745.74C2944 1736.21 2944.38 1727.84 2944.72 1718.35C2951.49 1712.31 2961.1 1713.33 2966.5 1703.85C2960.51 1703.85 2956.24 1703.85 2951.97 1703.85Z" fill="#E0AE71"/>
<path d="M2995.97 1727.81C2997.87 1726.03 2999.52 1723.81 3001.71 1722.53C3018.97 1712.44 3029.19 1696.13 3039.15 1679.78C3045.62 1669.14 3050.62 1657.71 3051.59 1642.46C3042.99 1649.48 3037.45 1656.39 3032.2 1663.51C3025.02 1673.23 3016.22 1681.11 3005.83 1687.15C2995.64 1693.08 2985.25 1698.65 2973.5 1703.27C2972.05 1701.48 2972.04 1700.8 2972.03 1700.12C2972.03 1700.12 2972.12 1699.93 2973.04 1699.75C2975.05 1698.97 2975.79 1698.08 2976.19 1696.91C2977.37 1691.78 2981.49 1689.91 2985.74 1687.95C2999.01 1681.83 3009.67 1672.56 3018.57 1660.99C3022.95 1655.31 3027.96 1650.06 3033.11 1645.04C3038.4 1639.88 3042.34 1634.05 3044.8 1625.58C3049.02 1621.56 3049.99 1617.17 3048.55 1613.65C3044.05 1602.68 3038.79 1592.02 3033.55 1581.38C3032.86 1579.96 3030.56 1579.34 3029.31 1578.55C3023.9 1580.11 3024.08 1584.87 3023.04 1588.25C3017.6 1605.82 2989.4 1602.66 2981.89 1590.39C2974.36 1578.07 2975.86 1564.41 2986.88 1554.53C2988.29 1553.27 2990.27 1551.95 2992.02 1551.89C3004.63 1551.45 3017.43 1550.86 3027.44 1560.71C3033.09 1566.27 3039.96 1571.31 3043.57 1578.04C3050.98 1591.83 3056.56 1606.61 3063.2 1622.41C3063.17 1629.06 3063.17 1634.33 3062.42 1639.49C3056.36 1681.28 3036.6 1713.7 2996.81 1731.96C2995.74 1729.81 2995.85 1728.81 2995.97 1727.81Z" fill="#13100D"/>
<path d="M2420.14 1651.63C2420.13 1649.99 2420.12 1648.36 2420.12 1645.49C2425.09 1640.02 2430.38 1643.38 2435.45 1643.79C2446.08 1644.65 2454.97 1642.43 2461.66 1633.18C2466.22 1626.86 2471.88 1621.34 2478.13 1614.22C2480.06 1617.72 2482.41 1619.97 2482.09 1621.74C2480.29 1631.59 2485.53 1636.85 2493.53 1640.15C2500.88 1643.18 2508.34 1646.26 2516.04 1648.09C2540.14 1653.82 2563.38 1662.02 2584.89 1674.11C2619.27 1693.42 2656.38 1705.83 2693.15 1719.21C2694.99 1719.88 2697.07 1720.21 2699.03 1720.18C2711.28 1719.94 2722.59 1724.03 2734.94 1729.56C2729.08 1735.12 2722.61 1732.22 2715.07 1729.78C2705.57 1728.01 2705.49 1728.07 2703.9 1736.67C2678.76 1730.72 2655.08 1720.64 2631.35 1710.76C2620.41 1706.21 2609.8 1700.83 2596.73 1694.52C2582.95 1688.05 2571.12 1683.57 2560.13 1677.55C2535.27 1663.93 2508.29 1658.29 2480.69 1654.08C2464.82 1651.66 2451.92 1654.56 2443.24 1669.3C2442.13 1671.19 2439.18 1673.09 2437.1 1673.07C2433.2 1673.03 2431.82 1669.68 2431.8 1666.07C2431.75 1658.11 2426.38 1654.53 2420.14 1651.63Z" fill="#13100D"/>
<path d="M2716.08 1730.65C2722.61 1732.22 2729.08 1735.12 2736.77 1729.67C2737.7 1727.74 2737.7 1727.75 2736.88 1729.48C2736.78 1732.32 2737.3 1734.19 2738.23 1734.43C2748.52 1736.98 2758.81 1741.01 2769.2 1741.32C2797.6 1742.18 2825.96 1743.54 2854.36 1737.85C2872.49 1734.21 2890.91 1731.95 2908.87 1727.13C2920.34 1724.04 2932.06 1721.9 2943.67 1719.34C2944.38 1727.84 2944 1736.21 2938.88 1746.3C2915.6 1755.73 2893.08 1757.37 2870.65 1759.26C2856.1 1760.49 2841.61 1759.92 2827.12 1757.16C2812.85 1754.44 2798.4 1752.08 2783.92 1751.2C2761.12 1749.81 2739.92 1742.37 2718.39 1735.99C2717.24 1735.65 2715.76 1734.99 2715.34 1734.07C2714.96 1733.22 2715.79 1731.81 2716.08 1730.65Z" fill="#C58F5C"/>
<path d="M2852.16 1328.82C2852.17 1329.64 2852.19 1330.45 2852.11 1332.5C2829.64 1338.29 2807.19 1335.53 2784.77 1334.35C2779.51 1334.07 2774.25 1333.05 2769.07 1332C2756.71 1329.5 2744.89 1326.24 2733.56 1319.79C2715.18 1309.34 2695.67 1300.86 2676.53 1290C2677.62 1286.48 2678.84 1284.5 2680.06 1282.52C2682.82 1280.77 2685.67 1277.39 2688.32 1277.55C2697.97 1278.14 2706.44 1274.07 2715.35 1271.91C2739.91 1265.96 2764.83 1264.19 2789.97 1264.87C2804.51 1265.26 2819.05 1266.06 2833.58 1266.91C2838.17 1267.18 2842.86 1267.7 2847.25 1269C2859.19 1272.53 2871 1276.53 2883.56 1281.49C2884.28 1283.35 2884.31 1284.07 2882.72 1285.63C2870.07 1284.22 2859.08 1281.79 2848.01 1279.79C2838.28 1278.04 2828.5 1276.32 2818.67 1275.4C2806.15 1274.22 2793.55 1274.02 2781.01 1273.09C2764.38 1271.87 2747.6 1271.8 2731.47 1275.36C2716.97 1278.57 2702.9 1283.82 2687.27 1284.24C2692.59 1294.73 2702.67 1296.19 2710.58 1300.21C2736.42 1313.35 2761.76 1328.84 2792.8 1325.17C2794.73 1324.94 2796.79 1325.34 2798.73 1325.72C2816.41 1329.09 2834.26 1329.25 2852.16 1328.82Z" fill="#3D3629"/>
<path d="M2288.52 1275.69C2289.83 1281.54 2295.49 1281.11 2299.4 1282.96C2316.93 1291.25 2326.09 1310.65 2320.88 1329.08C2315.28 1348.93 2303.96 1359.04 2284.89 1361.23C2269.82 1362.97 2253.27 1352.2 2246.88 1338.08C2242.75 1328.97 2242.26 1320.37 2245.19 1311.16C2248.3 1301.37 2253.8 1293.23 2262.07 1287.12C2265.77 1284.39 2269.77 1282.09 2274.34 1277.51C2275.32 1274.19 2275.63 1272.97 2275.95 1271.76C2276.61 1271.57 2277.28 1271.38 2279.55 1272.34C2283.61 1274.22 2286.07 1274.96 2288.52 1275.69ZM2303.13 1339.87C2304.87 1335.58 2306.88 1331.38 2308.31 1326.99C2311.79 1316.26 2307.64 1307.39 2300.63 1299.64C2294.12 1292.45 2282.92 1290.64 2272.98 1294.66C2263.05 1298.68 2254.57 1309.89 2255.47 1319.06C2256.63 1330.87 2261.66 1340.77 2272.39 1346.83C2283.11 1352.89 2292.76 1350.68 2303.13 1339.87Z" fill="#13100D"/>
<path d="M2274.08 1271.66C2275.63 1272.97 2275.32 1274.2 2274.68 1275.62C2254.1 1279.68 2233.82 1281.78 2213.12 1280.5C2197.97 1279.56 2182.71 1280.62 2167.52 1280.08C2143.09 1279.21 2118.65 1276.33 2094.28 1276.96C2068.77 1277.62 2044.36 1271.98 2019.82 1267.43C2001.06 1263.96 1982.98 1256.79 1964.62 1249.63C1965.71 1246.75 1966.78 1245.52 1967.86 1244.29C1981.56 1249.03 1995.27 1253.76 2008.98 1258.49C2009.6 1258.71 2010.23 1259.04 2010.87 1259.06C2039.99 1259.99 2067.54 1272.15 2096.78 1271.41C2109.96 1271.08 2122.89 1273.34 2135.99 1273.17C2148.46 1273 2160.94 1273.06 2173.41 1273.33C2189.9 1273.69 2206.38 1274.99 2222.84 1274.7C2239.31 1274.41 2255.75 1272.67 2274.08 1271.66Z" fill="#3D3629"/>
<path d="M3273.91 1578.25C3275.61 1578.94 3275.64 1579.8 3275.78 1581.96C3269.38 1584.42 3262.78 1585.2 3256.39 1586.84C3239.75 1591.09 3226.75 1583.57 3214.57 1573.99C3211.73 1571.75 3209.25 1567.71 3208.7 1564.18C3207.69 1557.74 3207.44 1550.94 3208.35 1544.5C3210.11 1531.99 3210.54 1532.05 3207.37 1521.7C3208.31 1522.79 3208.96 1523.6 3209.67 1524.35C3210.58 1525.31 3211.53 1526.22 3213.47 1528.16C3216.46 1525.19 3219.45 1522.22 3223.87 1517.84C3230.23 1516.51 3238.64 1514.53 3247.07 1517.96C3253.62 1520.62 3256.95 1526.57 3256.54 1533.9C3256.22 1539.6 3252.04 1544.34 3245.48 1546.37C3236.07 1549.28 3227.23 1547.52 3218.74 1541.86C3214.76 1549.06 3214.99 1556.04 3218.26 1561.45C3221.12 1566.21 3226.37 1570.45 3231.54 1572.73C3244.4 1578.43 3258.05 1581.02 3273.91 1578.25Z" fill="#13100D"/>
<path d="M2944.72 1718.35C2932.06 1721.9 2920.34 1724.04 2908.87 1727.13C2890.91 1731.95 2872.49 1734.21 2854.36 1737.85C2825.96 1743.54 2797.6 1742.18 2769.2 1741.32C2758.81 1741.01 2748.52 1736.98 2738.23 1734.43C2737.3 1734.19 2736.78 1732.32 2736.99 1729.51C2755.55 1730.61 2773.09 1731.83 2791.12 1731.65C2808.28 1731.48 2825.43 1731.17 2842.58 1730.32C2849.84 1729.96 2857.1 1730.34 2863.97 1727.02C2866.17 1725.95 2869.39 1725.53 2871.62 1726.32C2877.85 1728.52 2883.44 1726.44 2889.06 1724.67C2909.21 1718.32 2930.21 1714.65 2950.7 1704.65C2956.24 1703.86 2960.51 1703.86 2966.5 1703.86C2961.1 1713.33 2951.48 1712.31 2944.72 1718.35Z" fill="#232018"/>
<path d="M2221.42 1416.48C2201.78 1429.98 2187.36 1427.6 2176.87 1410.49C2171.58 1401.88 2173.18 1391.57 2181.56 1386.03C2200.17 1373.73 2202.71 1374.29 2216.35 1389.81C2222.95 1397.32 2226.26 1405.38 2221.42 1416.48Z" fill="#13100D"/>
<path d="M1966.76 1243.5C1966.78 1245.52 1965.71 1246.75 1963.57 1248.63C1955.93 1246.13 1949.3 1243.11 1942.8 1239.81C1932.27 1234.48 1925.8 1225.44 1919.86 1215.53C1908.39 1196.4 1925.69 1174.55 1944.8 1174.3C1953.21 1174.19 1962.27 1175.13 1969.46 1180.93C1972.64 1183.5 1975.06 1186.75 1974.1 1191.23C1973.29 1195.05 1970.11 1196.07 1966.82 1197.07C1956.82 1200.1 1955.21 1199.55 1951.17 1191.09C1947.53 1183.44 1940.07 1181.76 1934.43 1187.33C1926.78 1194.87 1924.32 1206.03 1930.18 1214.67C1934.56 1221.13 1940.61 1226.72 1946.79 1231.59C1952.47 1236.07 1959.32 1239.06 1966.76 1243.5Z" fill="#232018"/>
<path d="M2154.22 1452.7C2158.18 1457.14 2161.44 1460.7 2163.05 1464.9C2166.29 1473.35 2161.62 1480.95 2152.79 1482.87C2141.88 1485.25 2130.89 1476.45 2131.34 1465.69C2131.67 1457.72 2134.93 1453.53 2142.89 1451.97C2146.05 1451.35 2149.46 1452.02 2154.22 1452.7Z" fill="#13100D"/>
<path d="M2429.28 1291.26C2428.5 1284.48 2432.12 1281.11 2440.66 1281.71C2447.93 1284.32 2452.85 1286.5 2457.94 1287.02C2476.17 1288.88 2494.46 1290.14 2512.72 1291.72C2517.93 1292.17 2523.11 1292.94 2528.37 1294.54C2528.3 1296.84 2528.22 1298.15 2528.19 1299.46C2500.84 1300.34 2473.7 1298.61 2446.8 1293.38C2441.61 1292.37 2436.23 1292.29 2429.28 1291.26Z" fill="#3D3629"/>
<path d="M2591.95 1264.3C2613.64 1265.19 2634.64 1269.79 2655.41 1277.84C2653.47 1281.37 2651.44 1283.24 2649.07 1284.85C2648.73 1284.58 2648.06 1284.04 2647.36 1282.64C2628.4 1277.53 2610.13 1273.84 2591.85 1269.16C2591.98 1266.89 2592.02 1265.6 2591.95 1264.3Z" fill="#3D3629"/>
<path d="M2648.13 1290.35C2638.09 1292.52 2627.86 1294.05 2618.06 1297.02C2607.88 1300.11 2597.75 1300.62 2585.56 1298.48C2583.75 1295.83 2583.74 1294.4 2585.17 1292.51C2607.26 1290.64 2627.86 1288.82 2648.06 1284.04C2648.06 1284.04 2648.73 1284.58 2648.73 1286.15C2648.53 1288.6 2648.33 1289.48 2648.13 1290.35Z" fill="#3D3629"/>
<path d="M2503.92 1263.64C2512.44 1260.69 2520.67 1258.7 2530.2 1260.37C2541.5 1262.34 2553.26 1261.67 2566.57 1263.46C2568.16 1265.69 2568.1 1266.63 2566.22 1267.63C2544.19 1267.62 2524.04 1267.55 2503.88 1266.51C2503.87 1265.56 2503.92 1263.64 2503.92 1263.64Z" fill="#3D3629"/>
<path d="M2583.72 1292.96C2583.74 1294.4 2583.75 1295.83 2583.78 1298.33C2566.47 1299.69 2549.14 1299.98 2530 1299.86C2528.22 1298.15 2528.3 1296.84 2529.96 1294.38C2548.91 1295.65 2566.33 1296.2 2583.72 1292.96Z" fill="#13100D"/>
<path d="M2649.77 1289.99C2648.33 1289.48 2648.53 1288.6 2649.07 1286.42C2651.44 1283.24 2653.47 1281.37 2656.63 1278.65C2664.26 1278.77 2670.76 1279.73 2678.66 1281.61C2678.84 1284.5 2677.63 1286.48 2675.43 1289.15C2666.77 1289.78 2659.09 1289.7 2649.77 1289.99Z" fill="#13100D"/>
<path d="M2568.1 1267.57C2568.1 1266.63 2568.16 1265.7 2568.32 1264.07C2575.27 1259.24 2582.06 1264.85 2590.45 1264C2592.02 1265.6 2591.98 1266.89 2590.37 1269.23C2581.97 1269.37 2575.03 1268.47 2568.1 1267.57Z" fill="#232018"/>
<path d="M2502.18 1263.02C2503.92 1263.64 2503.87 1265.55 2502.08 1266.84C2488.16 1267.71 2476.02 1267.29 2463.88 1266.88C2463.88 1266.88 2463.67 1265.94 2463.64 1265.46C2468.72 1264.41 2473.8 1263.64 2478.91 1263.31C2486.07 1262.83 2493.26 1262.68 2502.18 1263.02Z" fill="#232018"/>
<path d="M2290.43 1275.91C2286.07 1274.96 2283.61 1274.22 2280.55 1272.57C2285.59 1271.44 2291.23 1271.24 2298.32 1272.37C2299.78 1273.71 2299.79 1275.07 2299.79 1275.07C2297.31 1275.42 2294.82 1275.78 2290.43 1275.91Z" fill="#232018"/>
<path d="M2301.16 1275.31C2299.79 1275.07 2299.78 1273.71 2299.89 1273.04C2302.08 1271.4 2304.16 1270.43 2307.38 1269.58C2308.4 1271.07 2308.28 1272.43 2308.12 1274.83C2306.23 1275.76 2304.38 1275.66 2301.16 1275.31Z" fill="#3D3629"/>
<path d="M2366.95 1265.95C2368.64 1267.99 2368.12 1270.42 2363.34 1271.03C2363.59 1269.57 2364.91 1268.34 2366.95 1265.95Z" fill="#3D3629"/>
<path d="M2462.57 1263.62C2462.22 1263.86 2461.14 1263.18 2460.11 1261.8C2460.72 1261.63 2461.29 1262.17 2462.57 1263.62Z" fill="#3D3629"/>
<path d="M2123.76 1670.84C2116.35 1673.72 2108.99 1676.73 2101.52 1679.44C2091.59 1683.05 2081.78 1686.82 2070.98 1687.65C2063.78 1688.2 2056.66 1690.3 2049.61 1692.14C2035.96 1695.69 2022.25 1696.25 2008.19 1695.19C1951.27 1690.9 1897.34 1675.82 1846.39 1650.42C1828.97 1641.74 1810.82 1640.18 1792.28 1641.87C1780.71 1642.92 1769.92 1641.41 1758.96 1638.43C1745.52 1634.79 1731.88 1631.88 1718.48 1628.15C1712.28 1626.43 1705.17 1625.83 1703.1 1617.32C1707.97 1616.01 1712.06 1615.45 1714.28 1617.22C1720.93 1622.53 1728.53 1623.35 1736.42 1624.02C1739.7 1624.3 1742.93 1625.24 1746.16 1625.95C1755.23 1627.94 1764.25 1630.19 1773.36 1631.93C1784.42 1634.05 1787.35 1633.57 1798.1 1629.08C1743.97 1599.18 1687.6 1579.65 1626.1 1576.04C1638.44 1583.43 1651.31 1589.62 1664.04 1596.07C1677.01 1602.63 1689.85 1609.44 1702.75 1616.14C1699.88 1619.02 1696.69 1617.67 1693.51 1616.89C1675.96 1612.56 1659.57 1605.46 1643.87 1596.59C1628.18 1587.72 1611.58 1581.71 1593.71 1578.38C1579.66 1575.76 1566.07 1575.64 1552.32 1578.9C1531.7 1583.79 1510.59 1587.41 1493.31 1601.13C1487.66 1605.61 1482.13 1610.23 1475.65 1615.51C1478.23 1619.65 1480.31 1622.79 1482.18 1626.05C1485.05 1631.04 1485.55 1636.24 1481.96 1641C1477.6 1646.79 1471.27 1649.14 1464.33 1648.03C1451 1645.91 1443.97 1628.14 1453.34 1618.59C1467.7 1603.97 1481.57 1588.11 1501.4 1580.55C1523.72 1572.03 1546.34 1564.31 1570.7 1563.99C1577.33 1563.9 1583.99 1563.48 1590.6 1562.78C1610.64 1560.64 1630.19 1563.88 1649.76 1567.59C1665.33 1570.54 1680.99 1572.98 1696.58 1575.85C1700.46 1576.56 1704.18 1578.09 1707.98 1579.22C1733.46 1586.8 1757.82 1597.23 1781.76 1608.61C1791.13 1613.06 1799.53 1619.26 1809.05 1623.8C1821.11 1629.55 1832.63 1631.97 1845.49 1629.14C1848.73 1628.43 1852.04 1628.04 1857.95 1627.58C1861.77 1627.63 1862.81 1627.21 1863.7 1626.42C1871.9 1625.78 1880.1 1625.14 1890.15 1626.07C1892.18 1629.3 1892.35 1630.95 1892.51 1632.54C1892.48 1632.48 1892.47 1632.54 1891.2 1632.31C1889.08 1632.17 1888.22 1632.26 1885.77 1632.56C1873.22 1634.09 1862.27 1635.4 1848.45 1637.05C1855.2 1643.39 1859.97 1648.26 1865.9 1650.15C1890.42 1657.99 1914.17 1668.28 1939.41 1673.75C1958.16 1677.81 1976.93 1683.19 1995.92 1684.4C2020.94 1685.99 2046.15 1683.73 2070.38 1675.87C2071.71 1675.43 2072.63 1673.71 2074.49 1671.82C2068.84 1670.18 2064.46 1668.92 2060.11 1666.64C2060.18 1664.26 2060.23 1662.9 2060.27 1661.54C2076.92 1662.84 2093.54 1665.98 2113.35 1663.03C2120.51 1664.29 2123.24 1666.46 2123.76 1670.84Z" fill="#232018"/>
<path d="M1702.63 1616.07C1689.85 1609.44 1677.01 1602.63 1664.04 1596.07C1651.31 1589.62 1638.44 1583.43 1626.1 1576.04C1687.6 1579.65 1743.97 1599.18 1798.1 1629.08C1787.34 1633.57 1784.42 1634.05 1773.36 1631.93C1764.25 1630.19 1755.23 1627.94 1746.16 1625.95C1742.93 1625.24 1739.7 1624.3 1736.42 1624.02C1728.53 1623.35 1720.93 1622.53 1714.28 1617.22C1712.06 1615.45 1707.97 1616.01 1703.47 1615.75C1702.22 1615.99 1702.5 1616 1702.63 1616.07Z" fill="#CB935E"/>
<path d="M2058.81 1661.11C2060.23 1662.9 2060.18 1664.26 2058.53 1666.71C2049.33 1665.77 2041.71 1663.82 2034.15 1661.69C2015.8 1656.55 1999.42 1646.18 1980.43 1642.39C1953.3 1636.98 1926.51 1629.51 1898.39 1633.3C1896.5 1633.56 1894.48 1632.86 1892.53 1632.6C1892.35 1630.95 1892.18 1629.3 1891.89 1626.4C1913.5 1622.57 1935.09 1624.97 1956.7 1626.89C1958.01 1627.01 1959.37 1627.14 1960.6 1627.57C1982.87 1635.31 2006.64 1638.18 2027.99 1649.06C2037.32 1653.81 2047.53 1656.86 2058.81 1661.11Z" fill="#3D3629"/>
<path d="M2294.7 1671.17C2282.45 1678.2 2268.51 1683.74 2255.61 1691.1C2243.01 1698.28 2230.76 1697.47 2217.92 1693.49C2215.44 1692.71 2213.08 1691.53 2209.56 1689.63C2213.71 1686.27 2218.82 1683.45 2224.24 1681.42C2237.13 1676.58 2250.04 1672.02 2264.23 1672.21C2273.96 1672.34 2283.71 1671.1 2294.7 1671.17Z" fill="#E5CCE1"/>
<path d="M2143.26 1662.69C2144.08 1665.14 2143.94 1666.75 2143.74 1669.57C2140.86 1670.71 2138.06 1670.64 2133.78 1669.1C2132.32 1665.43 2132.33 1663.24 2132.34 1661.05C2135.66 1661.31 2138.98 1661.58 2143.26 1662.69Z" fill="#13100D"/>
<path d="M2130.75 1660.98C2132.33 1663.24 2132.32 1665.43 2132.43 1668.72C2130.61 1670.28 2128.67 1670.75 2125.25 1671.03C2123.24 1666.46 2120.51 1664.29 2115.03 1663.05C2118.82 1662.04 2123.99 1661.48 2130.75 1660.98Z" fill="#3D3629"/>
<path d="M1862.85 1626.2C1862.81 1627.21 1861.77 1627.63 1859.72 1627.54C1859.73 1626.52 1860.77 1626.04 1862.85 1626.2Z" fill="#3D3629"/>
<path d="M416.916 696.836C421.54 694.964 425.01 693.946 430.61 692.304C429.216 702.163 427.766 709.753 425.46 717.242C422.72 726.136 423.588 734.178 430.613 741.17C432.844 743.39 434.537 746.653 435.254 749.724C435.772 751.945 435.008 755.511 433.433 756.834C432.23 757.847 427.729 757.154 426.644 755.732C419.024 745.745 411.706 735.508 404.7 725.076C399.45 717.256 401.41 709.823 407.684 703.479C409.98 701.158 413.047 699.598 416.916 696.836Z" fill="#E5CCE1"/>
<path d="M2418.34 1651.85C2426.39 1654.53 2431.75 1658.11 2431.8 1666.07C2431.82 1669.68 2433.2 1673.03 2437.1 1673.07C2439.18 1673.09 2442.13 1671.19 2443.24 1669.3C2451.92 1654.56 2464.82 1651.66 2480.69 1654.08C2508.29 1658.29 2535.27 1663.93 2560.13 1677.55C2571.12 1683.57 2582.96 1688.05 2595.29 1694.29C2592.45 1700.54 2586.79 1700.92 2581.81 1699.26C2570.14 1695.35 2558.19 1696.6 2546.34 1695.74C2534.49 1694.89 2522.68 1693.3 2510.93 1691.53C2497.88 1689.56 2484.97 1686.71 2471.91 1684.86C2464.73 1683.84 2457.29 1684.61 2450.09 1683.66C2418.67 1679.54 2387.5 1674.24 2356.98 1660.91C2375.73 1653.96 2396.02 1652.16 2418.34 1651.85Z" fill="#C58F5C"/>
<path d="M2715.07 1729.78C2715.79 1731.81 2714.96 1733.22 2715.35 1734.07C2715.77 1734.99 2717.24 1735.65 2718.39 1735.99C2739.92 1742.37 2761.12 1749.81 2783.92 1751.2C2798.4 1752.08 2812.85 1754.44 2827.12 1757.16C2841.61 1759.92 2856.1 1760.49 2870.65 1759.26C2893.08 1757.37 2915.6 1755.73 2938.64 1747.83C2951.56 1747.72 2961.85 1744.22 2971.32 1738.1C2976.78 1734.58 2981.83 1730.14 2990.6 1731.52C2991.3 1737.82 2986.62 1740.25 2982.02 1742.54C2970.09 1748.45 2957.83 1753.33 2944.64 1755.93C2931.02 1758.62 2917.96 1762.35 2905.3 1769.06C2893.2 1775.47 2879.22 1777.5 2864.76 1773.73C2832.63 1765.36 2800.01 1759.38 2766.89 1756.31C2761.66 1755.82 2756.45 1754.41 2751.39 1752.9C2736.14 1748.32 2720.98 1743.48 2704.84 1737.71C2705.49 1728.07 2705.57 1728.01 2715.07 1729.78Z" fill="#3D3629"/>
<path d="M2994.73 1727.8C2995.85 1728.81 2995.74 1729.81 2995.31 1732.29C2994.24 1733.89 2993.5 1734 2992.32 1733.07C2992.42 1730.62 2992.96 1729.21 2994.73 1727.8Z" fill="#3D3629"/>
<path d="M5126.59 1922.68C5117.41 1929.93 5117.37 1929.86 5107.97 1930.99C5103.82 1925.86 5107.49 1920.75 5109.05 1916.33C5113 1905.14 5112.49 1895.81 5102.39 1888.01C5100.12 1886.26 5099.29 1882.63 5098 1880.24C5101.5 1875.98 5104.76 1876.8 5107.43 1878.93C5117.45 1886.94 5124.07 1897.62 5129.89 1908.81C5132.32 1913.49 5130.77 1917.79 5126.59 1922.68Z" fill="#E5CCE1"/>
<path d="M5058.53 1938.26C5059.01 1937.67 5059.89 1937.59 5060.78 1937.5C5060.16 1937.93 5059.54 1938.35 5058.53 1938.26Z" fill="#E5CCE1"/>
<path d="M2853.56 1328.3C2834.26 1329.25 2816.41 1329.09 2798.73 1325.72C2796.79 1325.34 2794.73 1324.94 2792.8 1325.17C2761.76 1328.84 2736.42 1313.35 2710.58 1300.21C2702.67 1296.19 2692.59 1294.73 2687.27 1284.24C2702.9 1283.82 2716.97 1278.57 2731.47 1275.36C2747.6 1271.8 2764.38 1271.87 2781.01 1273.09C2793.55 1274.02 2806.16 1274.22 2818.67 1275.4C2828.5 1276.32 2838.28 1278.04 2848.01 1279.79C2859.08 1281.79 2870.07 1284.22 2882.65 1286.71C2901.81 1292.67 2919.24 1299.04 2937.09 1303.91C2954.11 1308.57 2971.56 1311.68 2988.88 1318.17C2986.23 1318.76 2983.55 1320.01 2980.95 1319.84C2969.16 1319.1 2956.9 1315.46 2945.77 1317.66C2933.99 1319.99 2922.23 1319.65 2910.55 1321.4C2895.91 1323.58 2881.26 1326.76 2866.16 1324.46C2862.67 1323.93 2858.71 1326.58 2853.56 1328.3Z" fill="#C58F5C"/>
<path d="M2462.48 1267.04C2476.02 1267.29 2488.16 1267.71 2502.09 1267.8C2524.04 1267.55 2544.19 1267.62 2566.22 1267.63C2575.03 1268.47 2581.97 1269.37 2590.38 1270.2C2610.13 1273.84 2628.4 1277.53 2647.36 1282.64C2627.86 1288.82 2607.27 1290.64 2585.17 1292.51C2566.33 1296.2 2548.91 1295.65 2529.9 1293.4C2523.11 1292.94 2517.93 1292.17 2512.72 1291.72C2494.46 1290.14 2476.17 1288.88 2457.94 1287.02C2452.85 1286.5 2447.94 1284.32 2442.02 1281.8C2443.98 1278.34 2446.7 1275.73 2449.78 1273.67C2453.38 1271.27 2457.29 1269.34 2462.48 1267.04Z" fill="#C58F5C"/>
<path d="M2421.15 1259.34C2414.97 1259.93 2410.33 1260.05 2405.7 1260.25C2399.32 1260.53 2394.15 1257.76 2389.54 1253.74C2378.34 1243.95 2376.61 1233.11 2384.09 1220.12C2392.92 1204.76 2407.59 1198.54 2422.33 1203.89C2441.44 1210.82 2447.9 1230.91 2435.73 1247.01C2432.24 1251.62 2427.09 1254.98 2421.15 1259.34Z" fill="#C58F5C"/>
<path d="M2970.74 1700.2C2972.04 1700.8 2972.05 1701.48 2972.02 1703.17C2968.74 1704.44 2967.07 1703.68 2970.74 1700.2Z" fill="#232018"/>
<path d="M2975.45 1697.33C2975.79 1698.08 2975.05 1698.97 2973.12 1699.82C2972.92 1699.11 2973.73 1698.34 2975.45 1697.33Z" fill="#232018"/>
<path d="M2302.27 1341.14C2292.76 1350.68 2283.12 1352.89 2272.39 1346.83C2261.66 1340.77 2256.63 1330.87 2255.47 1319.06C2254.57 1309.89 2263.05 1298.68 2272.98 1294.66C2282.92 1290.64 2294.12 1292.45 2300.63 1299.64C2307.65 1307.4 2311.79 1316.26 2308.31 1326.99C2306.88 1331.38 2304.87 1335.58 2302.27 1341.14Z" fill="#C58F5C"/>
<path d="M1892.51 1632.54C1894.48 1632.86 1896.5 1633.56 1898.39 1633.31C1926.51 1629.51 1953.3 1636.98 1980.43 1642.39C1999.42 1646.18 2015.8 1656.55 2034.15 1661.69C2041.71 1663.82 2049.33 1665.77 2058.5 1667.73C2064.46 1668.92 2068.84 1670.18 2074.49 1671.82C2072.63 1673.71 2071.71 1675.43 2070.38 1675.87C2046.15 1683.73 2020.94 1685.99 1995.92 1684.4C1976.93 1683.19 1958.16 1677.81 1939.41 1673.75C1914.17 1668.28 1890.42 1657.99 1865.9 1650.15C1859.97 1648.26 1855.2 1643.39 1848.45 1637.05C1862.27 1635.4 1873.22 1634.09 1886.32 1633.05C1888.93 1633.43 1889.46 1633.73 1889.87 1633.62C1890.77 1633.37 1891.61 1632.91 1892.47 1632.54C1892.47 1632.54 1892.48 1632.48 1892.51 1632.54Z" fill="#E0AE71"/>
<path d="M1891.2 1632.31C1891.61 1632.91 1890.77 1633.37 1889.87 1633.62C1889.46 1633.73 1888.93 1633.43 1887.91 1632.84C1888.22 1632.26 1889.08 1632.17 1891.2 1632.31Z" fill="#3D3629"/>
</svg>
