<?xml version="1.0" encoding="UTF-8" standalone="no"?>
<!-- Created with Inkscape (http://www.inkscape.org/) -->

<svg
   xmlns:dc="http://purl.org/dc/elements/1.1/"
   xmlns:cc="http://creativecommons.org/ns#"
   xmlns:rdf="http://www.w3.org/1999/02/22-rdf-syntax-ns#"
   xmlns:svg="http://www.w3.org/2000/svg"
   xmlns="http://www.w3.org/2000/svg"
   xmlns:sodipodi="http://sodipodi.sourceforge.net/DTD/sodipodi-0.dtd"
   xmlns:inkscape="http://www.inkscape.org/namespaces/inkscape"
   width="1000"
   height="1000"
   id="svg2"
   version="1.1"
   inkscape:version="0.92.4 (5da689c313, 2019-01-14)"
   sodipodi:docname="DR1_2017.svg">
  <defs
     id="defs4">
    <clipPath
       id="clipPath7151"
       clipPathUnits="userSpaceOnUse">
      <path
         id="path7153"
         d="m 664.016,528.803 56.81,0 0,13.111 -56.81,0 0,-13.111 z"
         inkscape:connector-curvature="0" />
    </clipPath>
    <clipPath
       id="clipPath7103"
       clipPathUnits="userSpaceOnUse">
      <path
         id="path7105"
         d="m 664.016,628.016 56.939,0 0,13.141 -56.939,0 0,-13.141 z"
         inkscape:connector-curvature="0" />
    </clipPath>
    <clipPath
       id="clipPath3583"
       clipPathUnits="userSpaceOnUse">
      <path
         id="path3585"
         d="m 28.346,356.42 81.569,0 0,9.712 -81.569,0 0,-9.712 z"
         inkscape:connector-curvature="0" />
    </clipPath>
    <clipPath
       id="clipPath7103-2"
       clipPathUnits="userSpaceOnUse">
      <path
         id="path7105-5"
         d="m 664.016,628.016 56.939,0 0,13.141 -56.939,0 0,-13.141 z"
         inkscape:connector-curvature="0" />
    </clipPath>
    <clipPath
       id="clipPath3583-8"
       clipPathUnits="userSpaceOnUse">
      <path
         id="path3585-0"
         d="m 28.346,356.42 81.569,0 0,9.712 -81.569,0 0,-9.712 z"
         inkscape:connector-curvature="0" />
    </clipPath>
  </defs>
  <sodipodi:namedview
     id="base"
     pagecolor="#ffffff"
     bordercolor="#666666"
     borderopacity="1.0"
     inkscape:pageopacity="0.0"
     inkscape:pageshadow="2"
     inkscape:zoom="0.19939168"
     inkscape:cx="139.15826"
     inkscape:cy="949.6256"
     inkscape:document-units="px"
     inkscape:current-layer="layer1"
     showgrid="false"
     fit-margin-top="0"
     fit-margin-left="0"
     fit-margin-right="0"
     fit-margin-bottom="0"
     inkscape:window-width="887"
     inkscape:window-height="1008"
     inkscape:window-x="1913"
     inkscape:window-y="0"
     inkscape:window-maximized="0"
     showguides="true"
     inkscape:guide-bbox="true">
    <inkscape:grid
       type="xygrid"
       id="grid2996"
       empspacing="5"
       visible="true"
       enabled="true"
       snapvisiblegridlinesonly="true"
       originx="-1200"
       originy="-940"
       spacingx="1"
       spacingy="1" />
    <sodipodi:guide
       position="500,995"
       orientation="1,0"
       id="guide501"
       inkscape:locked="false" />
  </sodipodi:namedview>
  <metadata
     id="metadata7">
    <rdf:RDF>
      <cc:Work
         rdf:about="">
        <dc:format>image/svg+xml</dc:format>
        <dc:type
           rdf:resource="http://purl.org/dc/dcmitype/StillImage" />
        <dc:title />
      </cc:Work>
    </rdf:RDF>
  </metadata>
  <g
     inkscape:label="Layer 1"
     inkscape:groupmode="layer"
     id="layer1"
     transform="translate(-1200,887.63781)">
    <path
       style="fill:#0f05a0;fill-opacity:1;fill-rule:evenodd;stroke:none;opacity:1"
       d="m 1200,-193.63781 0,-694 1000,0 0,694 -166,165.999998 -674,0 z"
       id="path4387"
       inkscape:connector-curvature="0" />
    <path
       inkscape:connector-curvature="0"
       d="m 1200,112.36219 1000,0 0,-306 -1000,0 z"
       style="fill:#000000;fill-opacity:1;fill-rule:nonzero;stroke:none"
       id="path7145"
       sodipodi:nodetypes="ccccc" />
    <g
       id="g7155"
       transform="matrix(21.64904,0,0,-21.64904,1556.734,2.054648)">
      <path
         inkscape:connector-curvature="0"
         d="M -0.15926745,0 -2.93,0 c -0.083,0 -0.099,0.033 -0.099,0.1 l 0,3.941 c 0,0.066 0.016,0.1 0.099,0.1 l 2.77073255,0 C 1.5827326,4.141 2.2797326,3.643 2.2797326,2.075 2.2797326,0.506 1.5827326,0 -0.15926745,0 M 2.2627326,5.344 -6.93,5.344 c -0.083,0 -0.125,-0.05 -0.125,-0.124 l 0,-6.299 c 0,-0.075 0.042,-0.124 0.125,-0.124 l 9.1927326,0 c 2.746,0 4.133,0.912 4.133,3.294 0,2.365 -1.387,3.253 -4.133,3.253"
         style="fill:#ffffff;fill-opacity:1;fill-rule:nonzero;stroke:none"
         id="path7157"
         sodipodi:nodetypes="cssssssccssssssc" />
    </g>
    <g
       id="g7159"
       transform="matrix(21.64904,0,0,-21.64904,1890.8718,-34.413152)">
      <path
         inkscape:connector-curvature="0"
         d="M -0.34786038,0 -3.4896615,0 c -0.075,0 -0.1,0.025 -0.1,0.099 l 0,2.258 c 0,0.074 0.025,0.099 0.1,0.099 l 3.14180112,0 c 1.096,0 1.56000008,-0.299 1.56000008,-1.203 C 1.2121397,0.34 0.74813962,0 -0.34786038,0 m 5.75994638,-2.622 -2.705,1.908 c -0.067,0.05 -0.108,0.075 -0.108,0.108 0,0.033 0.025,0.05 0.083,0.05 1.369,0 2.431,0.639 2.431,2.049 0,1.403 -0.913,2.166 -2.597,2.166 l -10.0067475,0 c -0.083,0 -0.125,-0.049 -0.125,-0.124 l 0,-6.298 c 0,-0.075 0.042,-0.125 0.125,-0.125 l 3.771,0 c 0.083,0 0.125,0.05 0.125,0.125 l 0,1.493 c 0,0.075 0.024,0.1 0.099,0.1 l 2.0567237,0 c 0.108,0 0.15,-0.008 0.224,-0.067 l 1.82769043,-1.559 c 0.092,-0.075 0.158,-0.092 0.26500004,-0.092 l 4.61733333,0 c 0.067,0 0.1,0.025 0.1,0.075 0,0.066 -0.117,0.141 -0.183,0.191"
         style="fill:#ffffff;fill-opacity:1;fill-rule:nonzero;stroke:none"
         id="path7161"
         sodipodi:nodetypes="csssssscccsssssssssssssccsssc" />
    </g>
    <path
       id="path497"
       d="m 1422.7524,-701.20924 v 323.40374 h 87.7207 v -88.77749 h 57.0712 c 82.0229,0 130.8935,-48.95551 130.8935,-118.46292 0,-69.30055 -48.8921,-116.16333 -133.9548,-116.16333 z m 87.7207,78.20875 h 48.6163 c 29.6353,0 49.7617,12.30654 49.7617,39.68025 0,26.53285 -20.076,39.58538 -49.0766,39.58538 h -49.3014 z"
       style="opacity:1;fill:#ffffff;fill-opacity:1;stroke:none;stroke-width:0.26421875;stroke-linecap:butt;stroke-linejoin:miter;stroke-miterlimit:4;stroke-dasharray:none;stroke-opacity:1"
       inkscape:connector-curvature="0" />
    <path
       style="opacity:1;fill:#ffffff;fill-opacity:1;stroke:none;stroke-width:0.26421875;stroke-linecap:butt;stroke-linejoin:miter;stroke-miterlimit:4;stroke-dasharray:none;stroke-opacity:1"
       d="m 1735.0589,-377.8055 h 247.8373 v -78.20875 h -113.0856 l 46.5025,-44.38874 c 29.447,-28.58 59.1667,-59.9634 59.1667,-106.90523 0,-61.28624 -46.7659,-99.03712 -117.7304,-99.03712 -83.0071,0 -131.6739,51.40292 -131.6739,121.39235 h 88.0446 c 0,-23.75141 12.2003,-46.60777 40.4083,-46.60777 21.3097,0 33.4394,13.77084 33.4394,30.9212 0,24.43008 -25.7116,48.17694 -44.5792,64.30281 l -108.3297,96.17563 z"
       id="path525"
       inkscape:connector-curvature="0"
       sodipodi:nodetypes="cccccccccccccc" />
  </g>
</svg>
